<?xml version="1.0" encoding="UTF-8"?>
<!DOCTYPE svg PUBLIC "-//W3C//DTD SVG 1.1//EN" "http://www.w3.org/Graphics/SVG/1.1/DTD/svg11.dtd">
<svg xmlns="http://www.w3.org/2000/svg" version="1.1" width="28px" height="28px" style="shape-rendering:geometricPrecision; text-rendering:geometricPrecision; image-rendering:optimizeQuality; fill-rule:evenodd; clip-rule:evenodd" xmlns:xlink="http://www.w3.org/1999/xlink">
<g><path style="opacity:0.698" fill="#ffd367" d="M 12.5,-0.5 C 13.1667,-0.5 13.8333,-0.5 14.5,-0.5C 14.5,0.5 14.5,1.5 14.5,2.5C 13.8333,5.16667 13.1667,5.16667 12.5,2.5C 12.5,1.5 12.5,0.5 12.5,-0.5 Z"/></g>
<g><path style="opacity:0.567" fill="#ffce4d" d="M 7.5,5.5 C 7.5,6.83333 6.83333,7.5 5.5,7.5C 3.91217,6.36474 3.57883,5.03141 4.5,3.5C 5.73867,3.94242 6.73867,4.60908 7.5,5.5 Z"/></g>
<g><path style="opacity:0.567" fill="#ffcf53" d="M 21.5,7.5 C 20.1667,7.5 19.5,6.83333 19.5,5.5C 20.6353,3.91217 21.9686,3.57883 23.5,4.5C 23.0576,5.73867 22.3909,6.73867 21.5,7.5 Z"/></g>
<g><path style="opacity:0.435" fill="#ffcb3c" d="M 7.5,5.5 C 8.83333,5.5 10.1667,5.5 11.5,5.5C 12.791,5.26269 13.791,5.59603 14.5,6.5C 12.901,6.23219 11.5676,6.56552 10.5,7.5C 8.93819,7.73286 7.60486,8.39952 6.5,9.5C 5.66175,9.15829 5.32842,8.49162 5.5,7.5C 6.83333,7.5 7.5,6.83333 7.5,5.5 Z"/></g>
<g><path style="opacity:0.686" fill="#ffc735" d="M 12.5,2.5 C 13.1667,5.16667 13.8333,5.16667 14.5,2.5C 15.1667,3.5 15.8333,4.5 16.5,5.5C 16.5,5.83333 16.5,6.16667 16.5,6.5C 15.8333,6.5 15.1667,6.5 14.5,6.5C 13.791,5.59603 12.791,5.26269 11.5,5.5C 11.2627,4.20895 11.596,3.20895 12.5,2.5 Z"/></g>
<g><path style="opacity:0.478" fill="#ffca3a" d="M 16.5,5.5 C 17.5,5.5 18.5,5.5 19.5,5.5C 19.5,6.83333 20.1667,7.5 21.5,7.5C 21.5,7.83333 21.5,8.16667 21.5,8.5C 20.8333,8.5 20.1667,8.5 19.5,8.5C 18.2905,8.06795 17.2905,7.40128 16.5,6.5C 16.5,6.16667 16.5,5.83333 16.5,5.5 Z"/></g>
<g><path style="opacity:1" fill="#ffea97" d="M 10.5,7.5 C 10.5,7.83333 10.5,8.16667 10.5,8.5C 9.16667,9.16667 8.16667,10.1667 7.5,11.5C 7.5,13.1667 7.5,14.8333 7.5,16.5C 6.66175,16.1583 6.32842,15.4916 6.5,14.5C 6.5,13.1667 6.5,11.8333 6.5,10.5C 6.5,10.1667 6.5,9.83333 6.5,9.5C 7.60486,8.39952 8.93819,7.73286 10.5,7.5 Z"/></g>
<g><path style="opacity:1" fill="#ffd76b" d="M 14.5,6.5 C 15.1667,6.5 15.8333,6.5 16.5,6.5C 17.2905,7.40128 18.2905,8.06795 19.5,8.5C 19.5,9.16667 19.5,9.83333 19.5,10.5C 18.5178,9.85917 17.5178,9.19251 16.5,8.5C 15.8933,8.62358 15.56,8.95691 15.5,9.5C 14.8333,10.5 14.1667,11.5 13.5,12.5C 12.5,12.5 11.5,12.5 10.5,12.5C 10.5,11.1667 10.5,9.83333 10.5,8.5C 10.5,8.16667 10.5,7.83333 10.5,7.5C 11.5676,6.56552 12.901,6.23219 14.5,6.5 Z"/></g>
<g><path style="opacity:0.284" fill="#ffc835" d="M 19.5,8.5 C 20.1667,8.5 20.8333,8.5 21.5,8.5C 21.5,9.5 21.5,10.5 21.5,11.5C 22.791,11.2627 23.791,11.596 24.5,12.5C 21.8333,13.1667 21.8333,13.8333 24.5,14.5C 23.3285,15.3446 21.9952,16.0113 20.5,16.5C 20.7947,14.2646 20.4614,12.2646 19.5,10.5C 19.5,9.83333 19.5,9.16667 19.5,8.5 Z"/></g>
<g><path style="opacity:1" fill="#fec033" d="M 19.5,10.5 C 19.5,10.8333 19.5,11.1667 19.5,11.5C 18.407,13.3492 17.0737,15.0158 15.5,16.5C 13.2646,16.7947 11.2646,16.4614 9.5,15.5C 14.1606,16.1679 16.1606,14.1679 15.5,9.5C 15.56,8.95691 15.8933,8.62358 16.5,8.5C 17.5178,9.19251 18.5178,9.85917 19.5,10.5 Z"/></g>
<g><path style="opacity:0.349" fill="#ffca3a" d="M 6.5,10.5 C 6.5,11.8333 6.5,13.1667 6.5,14.5C 5.83333,14.5 5.16667,14.5 4.5,14.5C 4.5,13.1667 3.83333,12.5 2.5,12.5C 3.67145,11.6554 5.00478,10.9887 6.5,10.5 Z"/></g>
<g><path style="opacity:0.218" fill="#ffc22e" d="M -0.5,12.5 C 0.166667,12.5 0.833333,12.5 1.5,12.5C 1.5,13.1667 1.5,13.8333 1.5,14.5C 0.833333,14.5 0.166667,14.5 -0.5,14.5C -0.5,13.8333 -0.5,13.1667 -0.5,12.5 Z"/></g>
<g><path style="opacity:0.086" fill="#ffc32e" d="M 25.5,12.5 C 26.1667,12.5 26.8333,12.5 27.5,12.5C 27.5,13.1667 27.5,13.8333 27.5,14.5C 26.8333,14.5 26.1667,14.5 25.5,14.5C 25.5,13.8333 25.5,13.1667 25.5,12.5 Z"/></g>
<g><path style="opacity:0.698" fill="#ffdb7c" d="M 1.5,12.5 C 1.83333,12.5 2.16667,12.5 2.5,12.5C 3.83333,12.5 4.5,13.1667 4.5,14.5C 3.83333,14.5 3.16667,14.5 2.5,14.5C 2.16667,14.5 1.83333,14.5 1.5,14.5C 1.5,13.8333 1.5,13.1667 1.5,12.5 Z"/></g>
<g><path style="opacity:1" fill="#fec339" d="M 7.5,11.5 C 8.83333,11.5 9.5,12.1667 9.5,13.5C 9.5,14.1667 9.5,14.8333 9.5,15.5C 8.83333,15.5 8.5,15.8333 8.5,16.5C 8.16667,16.5 7.83333,16.5 7.5,16.5C 7.5,14.8333 7.5,13.1667 7.5,11.5 Z"/></g>
<g><path style="opacity:1" fill="#feca4c" d="M 10.5,8.5 C 10.5,9.83333 10.5,11.1667 10.5,12.5C 11.5,12.5 12.5,12.5 13.5,12.5C 12.7893,14.8418 11.456,15.1751 9.5,13.5C 9.5,12.1667 8.83333,11.5 7.5,11.5C 8.16667,10.1667 9.16667,9.16667 10.5,8.5 Z"/></g>
<g><path style="opacity:1" fill="#fdb93b" d="M 19.5,11.5 C 19.9844,14.7882 18.9844,17.4548 16.5,19.5C 14.8333,19.5 13.1667,19.5 11.5,19.5C 12.8333,18.5 14.1667,17.5 15.5,16.5C 17.0737,15.0158 18.407,13.3492 19.5,11.5 Z"/></g>
<g><path style="opacity:0.698" fill="#ffda7b" d="M 24.5,12.5 C 24.8333,12.5 25.1667,12.5 25.5,12.5C 25.5,13.1667 25.5,13.8333 25.5,14.5C 25.1667,14.5 24.8333,14.5 24.5,14.5C 21.8333,13.8333 21.8333,13.1667 24.5,12.5 Z"/></g>
<g><path style="opacity:1" fill="#fec33a" d="M 15.5,9.5 C 16.1606,14.1679 14.1606,16.1679 9.5,15.5C 9.5,14.8333 9.5,14.1667 9.5,13.5C 11.456,15.1751 12.7893,14.8418 13.5,12.5C 14.1667,11.5 14.8333,10.5 15.5,9.5 Z"/></g>
<g><path style="opacity:1" fill="#fdbd36" d="M 9.5,15.5 C 11.2646,16.4614 13.2646,16.7947 15.5,16.5C 14.1667,17.5 12.8333,18.5 11.5,19.5C 10.1667,18.8333 9.16667,17.8333 8.5,16.5C 8.5,15.8333 8.83333,15.5 9.5,15.5 Z"/></g>
<g><path style="opacity:0.222" fill="#ffc733" d="M 2.5,14.5 C 3.16667,14.5 3.83333,14.5 4.5,14.5C 5.16667,14.5 5.83333,14.5 6.5,14.5C 6.32842,15.4916 6.66175,16.1583 7.5,16.5C 7.73286,18.0618 8.39952,19.3951 9.5,20.5C 9.15829,21.3382 8.49162,21.6716 7.5,21.5C 7.5,20.1667 6.83333,19.5 5.5,19.5C 5.5,18.1667 5.5,16.8333 5.5,15.5C 4.20895,15.7373 3.20895,15.404 2.5,14.5 Z"/></g>
<g><path style="opacity:1" fill="#ffe170" d="M 7.5,16.5 C 7.83333,16.5 8.16667,16.5 8.5,16.5C 9.16667,17.8333 10.1667,18.8333 11.5,19.5C 13.1667,19.5 14.8333,19.5 16.5,19.5C 16.1583,20.3382 15.4916,20.6716 14.5,20.5C 13.1667,20.5 11.8333,20.5 10.5,20.5C 10.1667,20.5 9.83333,20.5 9.5,20.5C 8.39952,19.3951 7.73286,18.0618 7.5,16.5 Z"/></g>
<g><path style="opacity:1" fill="#fede6c" d="M 19.5,10.5 C 20.4614,12.2646 20.7947,14.2646 20.5,16.5C 20.5,16.8333 20.5,17.1667 20.5,17.5C 19.3951,18.6005 18.0618,19.2671 16.5,19.5C 18.9844,17.4548 19.9844,14.7882 19.5,11.5C 19.5,11.1667 19.5,10.8333 19.5,10.5 Z"/></g>
<g><path style="opacity:0.435" fill="#ffc734" d="M 20.5,17.5 C 21.3382,17.8417 21.6716,18.5084 21.5,19.5C 20.1667,19.5 19.5,20.1667 19.5,21.5C 18.1667,21.5 16.8333,21.5 15.5,21.5C 15.7373,22.791 15.404,23.791 14.5,24.5C 14.5,23.8333 14.5,23.1667 14.5,22.5C 14.5,21.8333 14.5,21.1667 14.5,20.5C 15.4916,20.6716 16.1583,20.3382 16.5,19.5C 18.0618,19.2671 19.3951,18.6005 20.5,17.5 Z"/></g>
<g><path style="opacity:0.567" fill="#ffcd4f" d="M 5.5,19.5 C 6.83333,19.5 7.5,20.1667 7.5,21.5C 6.36474,23.0878 5.03141,23.4212 3.5,22.5C 3.94242,21.2613 4.60908,20.2613 5.5,19.5 Z"/></g>
<g><path style="opacity:0.567" fill="#ffce52" d="M 21.5,19.5 C 23.0878,20.6353 23.4212,21.9686 22.5,23.5C 21.2613,23.0576 20.2613,22.3909 19.5,21.5C 19.5,20.1667 20.1667,19.5 21.5,19.5 Z"/></g>
<g><path style="opacity:0.349" fill="#ffc937" d="M 10.5,20.5 C 11.8333,20.5 13.1667,20.5 14.5,20.5C 14.5,21.1667 14.5,21.8333 14.5,22.5C 13.1667,22.5 12.5,23.1667 12.5,24.5C 11.6554,23.3285 10.9887,21.9952 10.5,20.5 Z"/></g>
<g><path style="opacity:0.698" fill="#ffdb7c" d="M 14.5,22.5 C 14.5,23.1667 14.5,23.8333 14.5,24.5C 14.5,24.8333 14.5,25.1667 14.5,25.5C 13.8333,25.5 13.1667,25.5 12.5,25.5C 12.5,25.1667 12.5,24.8333 12.5,24.5C 12.5,23.1667 13.1667,22.5 14.5,22.5 Z"/></g>
<g><path style="opacity:0.217" fill="#ffc72e" d="M 12.5,25.5 C 13.1667,25.5 13.8333,25.5 14.5,25.5C 14.5,26.1667 14.5,26.8333 14.5,27.5C 13.8333,27.5 13.1667,27.5 12.5,27.5C 12.5,26.8333 12.5,26.1667 12.5,25.5 Z"/></g>
</svg>
