<svg width="198" height="47" viewBox="0 0 198 47" fill="none" xmlns="http://www.w3.org/2000/svg">
<path d="M17.1796 22.8316L49.3255 22.8194C49.4085 22.8194 49.4906 22.8359 49.5671 22.8677C49.6436 22.8996 49.7131 22.9463 49.7713 23.0052C49.8296 23.064 49.8756 23.1338 49.9067 23.2106C49.9378 23.2873 49.9534 23.3695 49.9525 23.4524L49.9309 25.764C49.9271 25.9334 49.8575 26.0947 49.7373 26.2129C49.617 26.3312 49.4556 26.3969 49.2882 26.3958L17.1048 26.4103C16.9681 26.4116 16.8334 26.4461 16.7123 26.511C16.5912 26.5759 16.4872 26.6692 16.4093 26.7829C15.5585 28.0276 14.955 29.5159 13.7223 30.3339C7.31679 34.5924 0.637404 27.4363 3.95224 21.2141C6.29651 16.8177 12.1781 16.1655 15.0465 20.4793C15.5084 21.1786 15.9951 21.8539 16.5068 22.5052C16.5864 22.6066 16.6883 22.6886 16.8048 22.7452C16.9213 22.8017 17.0494 22.8312 17.1796 22.8316ZM12.695 22.9671C12.2601 22.2139 11.543 21.6648 10.7014 21.4406C9.85973 21.2163 8.96254 21.3353 8.20717 21.7715C7.45179 22.2076 6.90011 22.9251 6.67349 23.766C6.44686 24.607 6.56386 25.5027 6.99873 26.2559C7.43361 27.0091 8.15074 27.5582 8.99238 27.7825C9.83401 28.0067 10.7312 27.8877 11.4866 27.4516C12.2419 27.0154 12.7936 26.298 13.0203 25.457C13.2469 24.616 13.1299 23.7204 12.695 22.9671Z" fill="white"/>
<path d="M150.272 26.1119L150.1 23.3808C150.096 23.3236 150.104 23.2662 150.124 23.2122C150.143 23.1582 150.174 23.1087 150.213 23.0669C150.253 23.0251 150.3 22.9918 150.353 22.9692C150.406 22.9465 150.463 22.9349 150.52 22.935L182.804 22.8919C182.875 22.892 182.945 22.8739 183.008 22.8393C183.07 22.8047 183.123 22.7548 183.161 22.6943C183.198 22.6338 183.22 22.5646 183.224 22.4935C183.227 22.4223 183.213 22.3514 183.181 22.2875L180.362 16.5155C180.321 16.4355 180.307 16.3443 180.322 16.2554C180.337 16.1665 180.38 16.0848 180.445 16.0222C180.51 15.9597 180.593 15.9198 180.683 15.9083C180.772 15.8969 180.863 15.9146 180.942 15.9588L196.836 24.3439C196.903 24.3802 196.959 24.434 196.997 24.4995C197.035 24.565 197.055 24.6398 197.054 24.7158C197.053 24.7918 197.032 24.8661 196.992 24.9309C196.952 24.9956 196.895 25.0483 196.827 25.0833L180.845 33.4604C180.767 33.5003 180.679 33.5149 180.592 33.5022C180.506 33.4894 180.426 33.4499 180.363 33.3892C180.3 33.3286 180.258 33.2498 180.242 33.1639C180.227 33.078 180.238 32.9893 180.276 32.9102L183.214 27.0598C183.247 26.9962 183.262 26.9254 183.259 26.8542C183.257 26.7829 183.236 26.7136 183.199 26.6528C183.162 26.5919 183.11 26.5416 183.048 26.5065C182.986 26.4714 182.916 26.4528 182.844 26.4524L150.689 26.4989C150.583 26.4989 150.482 26.4591 150.404 26.3873C150.327 26.3155 150.279 26.2171 150.272 26.1119Z" fill="white"/>
</svg>
