<svg width="165" height="46" viewBox="0 0 165 46" fill="none" xmlns="http://www.w3.org/2000/svg">
<path d="M21.9492 22.0761L62.7982 21.9965C62.9037 21.9963 63.0081 22.0126 63.1054 22.0443C63.2027 22.076 63.291 22.1226 63.3653 22.1813C63.4395 22.24 63.4981 22.3097 63.5379 22.3864C63.5776 22.4631 63.5976 22.5452 63.5967 22.6281L63.5753 24.9398C63.571 25.1092 63.483 25.2706 63.3305 25.3891C63.178 25.5076 62.9731 25.5737 62.7603 25.573L21.8638 25.6549C21.69 25.6565 21.519 25.6913 21.3652 25.7564C21.2115 25.8216 21.0796 25.9151 20.9809 26.029C19.9031 27.2754 19.1402 28.765 17.5759 29.5856C9.44753 33.8575 0.940711 26.7154 5.13642 20.4863C8.10366 16.085 15.5759 15.4204 19.2323 19.7282C19.8211 20.4266 20.4415 21.1009 21.0934 21.7511C21.1948 21.8523 21.3245 21.9341 21.4727 21.9904C21.6209 22.0467 21.7838 22.076 21.9492 22.0761ZM16.2509 22.221C15.6962 21.4687 14.7835 20.921 13.7134 20.6986C12.6433 20.4761 11.5035 20.597 10.5448 21.0347C9.58608 21.4724 8.88696 22.191 8.60122 23.0325C8.31547 23.874 8.46653 24.7693 9.02115 25.5217C9.57577 26.274 10.4885 26.8216 11.5586 27.0441C12.6287 27.2665 13.7685 27.1456 14.7272 26.7079C15.6859 26.2702 16.385 25.5516 16.6708 24.7101C16.9565 23.8687 16.8055 22.9733 16.2509 22.221Z" fill="white"/>
<path d="M105.045 25.295L104.814 22.5645C104.809 22.5073 104.82 22.4499 104.844 22.3958C104.869 22.3417 104.907 22.2922 104.957 22.2503C105.007 22.2083 105.068 22.1749 105.135 22.152C105.202 22.1292 105.274 22.1173 105.347 22.1173L146.37 21.9644C146.461 21.9643 146.55 21.9459 146.629 21.9111C146.708 21.8763 146.775 21.8262 146.823 21.7655C146.871 21.7049 146.898 21.6357 146.902 21.5645C146.906 21.4933 146.888 21.4225 146.847 21.3587L143.24 15.5963C143.187 15.5164 143.169 15.4253 143.187 15.3363C143.206 15.2474 143.261 15.1655 143.343 15.1028C143.425 15.04 143.531 14.9998 143.645 14.988C143.759 14.9763 143.874 14.9937 143.974 15.0376L164.208 23.3686C164.293 23.4047 164.364 23.4583 164.413 23.5237C164.462 23.5891 164.488 23.6638 164.487 23.7398C164.486 23.8158 164.459 23.8902 164.408 23.9551C164.358 24.0199 164.286 24.0728 164.2 24.1081L143.927 32.5395C143.828 32.5797 143.716 32.5945 143.606 32.5821C143.496 32.5696 143.394 32.5304 143.314 32.4699C143.234 32.4095 143.18 32.3308 143.16 32.245C143.139 32.1591 143.154 32.0704 143.201 31.9912L146.91 26.1309C146.951 26.0671 146.97 25.9963 146.966 25.925C146.963 25.8538 146.936 25.7846 146.889 25.7239C146.841 25.6631 146.775 25.613 146.696 25.5781C146.617 25.5433 146.528 25.5249 146.437 25.5247L105.577 25.6806C105.442 25.681 105.313 25.6415 105.214 25.57C105.115 25.4985 105.055 25.4002 105.045 25.295Z" fill="white"/>
</svg>
