<svg width="24" height="25" viewBox="0 0 24 25" fill="none" xmlns="http://www.w3.org/2000/svg">
<path d="M17 14.5C17.5523 14.5 18 14.0523 18 13.5C18 12.9477 17.5523 12.5 17 12.5C16.4477 12.5 16 12.9477 16 13.5C16 14.0523 16.4477 14.5 17 14.5Z" fill="white" fill-opacity="0.6"/>
<path d="M17 18.5C17.5523 18.5 18 18.0523 18 17.5C18 16.9477 17.5523 16.5 17 16.5C16.4477 16.5 16 16.9477 16 17.5C16 18.0523 16.4477 18.5 17 18.5Z" fill="white" fill-opacity="0.6"/>
<path d="M13 13.5C13 14.0523 12.5523 14.5 12 14.5C11.4477 14.5 11 14.0523 11 13.5C11 12.9477 11.4477 12.5 12 12.5C12.5523 12.5 13 12.9477 13 13.5Z" fill="white" fill-opacity="0.6"/>
<path d="M13 17.5C13 18.0523 12.5523 18.5 12 18.5C11.4477 18.5 11 18.0523 11 17.5C11 16.9477 11.4477 16.5 12 16.5C12.5523 16.5 13 16.9477 13 17.5Z" fill="white" fill-opacity="0.6"/>
<path d="M7 14.5C7.55229 14.5 8 14.0523 8 13.5C8 12.9477 7.55229 12.5 7 12.5C6.44772 12.5 6 12.9477 6 13.5C6 14.0523 6.44772 14.5 7 14.5Z" fill="white" fill-opacity="0.6"/>
<path d="M7 18.5C7.55229 18.5 8 18.0523 8 17.5C8 16.9477 7.55229 16.5 7 16.5C6.44772 16.5 6 16.9477 6 17.5C6 18.0523 6.44772 18.5 7 18.5Z" fill="white" fill-opacity="0.6"/>
<path fill-rule="evenodd" clip-rule="evenodd" d="M7 2.25C7.41421 2.25 7.75 2.58579 7.75 3V3.76272C8.412 3.74999 9.14133 3.74999 9.94346 3.75H14.0564C14.8586 3.74999 15.588 3.74999 16.25 3.76272V3C16.25 2.58579 16.5858 2.25 17 2.25C17.4142 2.25 17.75 2.58579 17.75 3V3.82709C18.0099 3.84691 18.2561 3.87182 18.489 3.90313C19.6614 4.06076 20.6104 4.39288 21.3588 5.14124C22.1071 5.88961 22.4392 6.83855 22.5969 8.01098C22.75 9.15018 22.75 10.6058 22.75 12.4435V14.5564C22.75 16.3941 22.75 17.8498 22.5969 18.989C22.4392 20.1614 22.1071 21.1104 21.3588 21.8588C20.6104 22.6071 19.6614 22.9392 18.489 23.0969C17.3498 23.25 15.8942 23.25 14.0565 23.25H9.94359C8.10585 23.25 6.65018 23.25 5.51098 23.0969C4.33856 22.9392 3.38961 22.6071 2.64124 21.8588C1.89288 21.1104 1.56076 20.1614 1.40314 18.989C1.24997 17.8498 1.24998 16.3942 1.25 14.5564V12.4436C1.24998 10.6058 1.24997 9.15019 1.40314 8.01098C1.56076 6.83855 1.89288 5.88961 2.64124 5.14124C3.38961 4.39288 4.33856 4.06076 5.51098 3.90313C5.7439 3.87182 5.99006 3.84691 6.25 3.82709V3C6.25 2.58579 6.58579 2.25 7 2.25ZM5.71085 5.38976C4.70476 5.52502 4.12511 5.77869 3.7019 6.2019C3.27869 6.62511 3.02502 7.20476 2.88976 8.21085C2.86685 8.38123 2.8477 8.56061 2.83168 8.75H21.1683C21.1523 8.56061 21.1331 8.38124 21.1102 8.21085C20.975 7.20476 20.7213 6.62511 20.2981 6.2019C19.8749 5.77869 19.2952 5.52502 18.2892 5.38976C17.2615 5.25159 15.9068 5.25 14 5.25H10C8.09318 5.25 6.73851 5.25159 5.71085 5.38976ZM2.75 12.5C2.75 11.646 2.75032 10.9027 2.76309 10.25H21.2369C21.2497 10.9027 21.25 11.646 21.25 12.5V14.5C21.25 16.4068 21.2484 17.7615 21.1102 18.7892C20.975 19.7952 20.7213 20.3749 20.2981 20.7981C19.8749 21.2213 19.2952 21.475 18.2892 21.6102C17.2615 21.7484 15.9068 21.75 14 21.75H10C8.09318 21.75 6.73851 21.7484 5.71085 21.6102C4.70476 21.475 4.12511 21.2213 3.7019 20.7981C3.27869 20.3749 3.02502 19.7952 2.88976 18.7892C2.75159 17.7615 2.75 16.4068 2.75 14.5V12.5Z" fill="white" fill-opacity="0.6"/>
</svg>
