<svg width="110" height="110" viewBox="0 0 110 110" fill="none" xmlns="http://www.w3.org/2000/svg">
<g id="118961_few_weather_clouds_icon 1">
<g id="layer1">
<g id="g6783">
<path id="path6785" d="M37.8358 33.196C32.6318 33.196 28.4172 36.7488 27.022 41.5033C25.4333 40.6696 23.7116 40.071 21.7941 40.071C15.4691 40.071 10.3358 45.2044 10.3358 51.5294C10.3358 52.8561 10.7082 54.0679 11.1235 55.2533C7.976 57.0196 5.75244 60.2698 5.75244 64.1335C5.75244 69.826 10.3724 74.4461 16.0649 74.446C16.4709 74.446 59.2007 74.446 59.6066 74.446C65.2991 74.446 69.9191 69.826 69.9191 64.1335C69.9191 60.2698 67.6956 57.0196 64.548 55.2533C64.9634 54.0679 65.3358 52.8561 65.3358 51.5294C65.3358 45.2044 60.2024 40.0711 53.8774 40.071C51.9599 40.071 50.2382 40.6696 48.6496 41.5033C47.2543 36.7488 43.0398 33.196 37.8358 33.196Z" fill="#C4C5C2"/>
<path id="path6787" d="M37.8357 34.3418C32.8176 34.3418 29.3025 37.4029 27.7626 43.1498C26.2307 42.3624 24.216 41.2401 22.3669 41.2401C16.1416 41.2401 11.4698 45.6833 11.4698 51.657C11.4698 52.91 12.0821 54.7128 12.4826 55.8324C9.44744 57.5006 6.89819 60.1648 6.89819 63.5612C6.89819 68.9375 10.4415 73.301 16.8424 73.301C17.2338 73.301 58.4376 73.301 58.829 73.301C65.1792 73.301 68.7732 68.9375 68.7732 63.5612C68.7732 59.912 66.2239 57.45 63.1888 55.7818C63.5893 54.6621 64.2523 52.91 64.2523 51.657C64.2523 45.6833 59.4035 41.1895 53.3044 41.1895C51.4554 41.1895 49.542 42.3118 48.0101 43.0993C46.5231 37.5499 42.8538 34.3418 37.8357 34.3418Z" fill="url(#paint0_linear_102_4779)"/>
<g id="g6789">
<path id="path6791" d="M45.8564 44.6544C45.8564 46.7816 45.0113 48.8218 43.5071 50.326C42.0029 51.8301 39.9628 52.6752 37.8355 52.6752C35.7083 52.6752 33.6682 51.8301 32.164 50.326C30.6598 48.8218 29.8147 46.7816 29.8147 44.6544C29.8147 42.5271 30.6598 40.487 32.164 38.9828C33.6682 37.4786 35.7083 36.6335 37.8355 36.6335C39.9628 36.6335 42.0029 37.4786 43.5071 38.9828C45.0113 40.487 45.8564 42.5271 45.8564 44.6544Z" fill="#C4C5C2"/>
<path id="path6793" d="M45.8564 44.6544C45.8564 46.7816 45.0113 48.8218 43.5071 50.326C42.0029 51.8301 39.9628 52.6752 37.8355 52.6752C35.7083 52.6752 33.6682 51.8301 32.164 50.326C30.6598 48.8218 29.8147 46.7816 29.8147 44.6544C29.8147 42.5271 30.6598 40.487 32.164 38.9828C33.6682 37.4786 35.7083 36.6335 37.8355 36.6335C39.9628 36.6335 42.0029 37.4786 43.5071 38.9828C45.0113 40.487 45.8564 42.5271 45.8564 44.6544Z" fill="url(#paint1_linear_102_4779)"/>
</g>
<path id="rect6795" d="M61.898 50.3835H16.0647V71.0085H61.898V50.3835Z" fill="#C4C5C2"/>
<path id="path6797" d="M22.9394 64.1338C22.9394 65.9571 22.2151 67.7058 20.9258 68.9951C19.6365 70.2844 17.8878 71.0088 16.0644 71.0088C14.2411 71.0088 12.4924 70.2844 11.2031 68.9951C9.91379 67.7058 9.18945 65.9571 9.18945 64.1338C9.18945 62.3104 9.91379 60.5618 11.2031 59.2724C12.4924 57.9831 14.2411 57.2588 16.0644 57.2588C17.8878 57.2588 19.6365 57.9831 20.9258 59.2724C22.2151 60.5618 22.9394 62.3104 22.9394 64.1338Z" fill="#C4C5C2"/>
<g id="g6799">
<path id="path6801" d="M61.8981 51.5291C61.8981 53.6564 61.053 55.6965 59.5489 57.2007C58.0447 58.7049 56.0045 59.55 53.8773 59.55C51.75 59.55 49.7099 58.7049 48.2057 57.2007C46.7015 55.6965 45.8564 53.6564 45.8564 51.5291C45.8564 49.4019 46.7015 47.3618 48.2057 45.8576C49.7099 44.3534 51.75 43.5083 53.8773 43.5083C56.0045 43.5083 58.0447 44.3534 59.5489 45.8576C61.053 47.3618 61.8981 49.4019 61.8981 51.5291Z" fill="#C4C5C2"/>
<path id="path6803" d="M61.8981 51.5291C61.8981 53.6564 61.053 55.6965 59.5489 57.2007C58.0447 58.7049 56.0045 59.55 53.8773 59.55C51.75 59.55 49.7099 58.7049 48.2057 57.2007C46.7015 55.6965 45.8564 53.6564 45.8564 51.5291C45.8564 49.4019 46.7015 47.3618 48.2057 45.8576C49.7099 44.3534 51.75 43.5083 53.8773 43.5083C56.0045 43.5083 58.0447 44.3534 59.5489 45.8576C61.053 47.3618 61.8981 49.4019 61.8981 51.5291Z" fill="url(#paint2_linear_102_4779)"/>
</g>
<g id="g6805">
<path id="path6807" d="M29.8149 51.5294C29.8149 53.6566 28.9698 55.6968 27.4656 57.201C25.9614 58.7051 23.9213 59.5502 21.794 59.5502C19.6668 59.5502 17.6267 58.7051 16.1225 57.201C14.6183 55.6968 13.7732 53.6566 13.7732 51.5294C13.7732 49.4021 14.6183 47.362 16.1225 45.8578C17.6267 44.3536 19.6668 43.5085 21.794 43.5085C23.9213 43.5085 25.9614 44.3536 27.4656 45.8578C28.9698 47.362 29.8149 49.4021 29.8149 51.5294Z" fill="#C4C5C2"/>
<path id="path6809" d="M29.8149 51.5294C29.8149 53.6566 28.9698 55.6968 27.4656 57.201C25.9614 58.7051 23.9213 59.5502 21.794 59.5502C19.6668 59.5502 17.6267 58.7051 16.1225 57.201C14.6183 55.6968 13.7732 53.6566 13.7732 51.5294C13.7732 49.4021 14.6183 47.362 16.1225 45.8578C17.6267 44.3536 19.6668 43.5085 21.794 43.5085C23.9213 43.5085 25.9614 44.3536 27.4656 45.8578C28.9698 47.362 29.8149 49.4021 29.8149 51.5294Z" fill="url(#paint3_linear_102_4779)"/>
</g>
<g id="g6811">
<path id="path6813" d="M35.4724 43.5801C27.2697 43.5801 20.6482 50.2732 20.6482 58.4759C20.6482 63.9087 23.7406 68.4167 28.0961 71.0085H42.9203C47.2758 68.4167 50.3682 63.8371 50.3682 58.4043C50.3682 50.2016 43.6751 43.5801 35.4724 43.5801Z" fill="#C4C5C2"/>
<path id="path6815" d="M35.544 43.5085C27.3215 43.5085 20.6482 50.1819 20.6482 58.4044C20.6482 63.8503 23.7301 68.4105 28.0961 71.0085H42.9919C47.3579 68.4105 50.4399 63.8503 50.4399 58.4044C50.4399 50.1819 43.7665 43.5086 35.544 43.5085Z" fill="url(#paint4_linear_102_4779)"/>
</g>
<path id="path6817" d="M22.9397 64.1335C22.9397 65.9569 22.2154 67.7056 20.926 68.9949C19.6367 70.2842 17.8881 71.0085 16.0647 71.0085C14.2413 71.0085 12.4927 70.2842 11.2033 68.9949C9.91404 67.7056 9.1897 65.9569 9.1897 64.1335C9.1897 62.3102 9.91404 60.5615 11.2033 59.2722C12.4927 57.9829 14.2413 57.2585 16.0647 57.2585C17.8881 57.2585 19.6367 57.9829 20.926 59.2722C22.2154 60.5615 22.9397 62.3102 22.9397 64.1335Z" fill="url(#paint5_linear_102_4779)"/>
<path id="path6819" fill-rule="evenodd" clip-rule="evenodd" d="M66.3815 51.9099C66.3779 58.062 58.8894 60.4211 58.8894 60.4211C58.8894 60.4211 64.2719 56.6949 64.2447 51.9304L66.3815 51.9099Z" fill="#888A85"/>
<g id="g6821">
<path id="path6823" d="M55.023 61.8422C55.023 64.2734 54.0572 66.6049 52.3382 68.324C50.6191 70.0431 48.2875 71.0089 45.8564 71.0089C43.4252 71.0089 41.0937 70.0431 39.3746 68.324C37.6555 66.6049 36.6897 64.2734 36.6897 61.8422C36.6897 59.4111 37.6555 57.0795 39.3746 55.3604C41.0937 53.6413 43.4252 52.6755 45.8564 52.6755C48.2875 52.6755 50.6191 53.6413 52.3382 55.3604C54.0572 57.0795 55.023 59.4111 55.023 61.8422Z" fill="#C4C5C2"/>
<path id="path6825" d="M55.023 61.8422C55.023 64.2734 54.0572 66.6049 52.3382 68.324C50.6191 70.0431 48.2875 71.0089 45.8564 71.0089C43.4252 71.0089 41.0937 70.0431 39.3746 68.324C37.6555 66.6049 36.6897 64.2734 36.6897 61.8422C36.6897 59.4111 37.6555 57.0795 39.3746 55.3604C41.0937 53.6413 43.4252 52.6755 45.8564 52.6755C48.2875 52.6755 50.6191 53.6413 52.3382 55.3604C54.0572 57.0795 55.023 59.4111 55.023 61.8422Z" fill="url(#paint6_linear_102_4779)"/>
</g>
</g>
<g id="g3936">
<g id="g4091" opacity="0.7">
<path id="path7492" d="M55.0001 5.72925L49.5574 21.0548C51.3312 20.772 53.147 20.6251 55.0001 20.6251C56.8531 20.6251 58.669 20.772 60.4428 21.0548L55.0001 5.72925ZM20.1954 20.1238L27.142 34.8764C29.2854 31.9197 31.9197 29.2854 34.8764 27.142L20.1954 20.1238ZM89.8764 20.1238L75.1238 27.142C78.0804 29.2854 80.7148 31.9197 82.8581 34.8764L89.8764 20.1238ZM21.0548 49.4858L5.72925 54.9285L21.0548 60.3712C20.7794 58.6198 20.6251 56.8284 20.6251 55.0001C20.6251 53.1223 20.7646 51.282 21.0548 49.4858ZM88.9454 49.5574C89.2281 51.3312 89.3751 53.147 89.3751 55.0001C89.3751 56.8531 89.2281 58.669 88.9454 60.4428L104.271 55.0001L88.9454 49.5574ZM27.142 75.1238L20.1954 89.8048L34.8764 82.8581C31.9197 80.7148 29.2854 78.0804 27.142 75.1238ZM82.8581 75.1238C80.735 78.0525 78.1175 80.6548 75.1954 82.7865L89.8764 89.8048L82.8581 75.1238ZM49.5574 88.9454L55.0001 104.271L60.4428 88.9454C58.669 89.2281 56.8531 89.3751 55.0001 89.3751C53.147 89.3751 51.3312 89.2281 49.5574 88.9454Z" fill="#FFC62D" stroke="#FFC62D" stroke-width="0.737329" stroke-linecap="square"/>
<path id="path7494" d="M55.0002 12.0312L51.9207 20.7682C52.9351 20.678 53.9625 20.625 55.0002 20.625C56.0379 20.625 57.0652 20.678 58.0796 20.7682L55.0002 12.0312ZM24.7072 24.6354L28.646 32.9427C29.9558 31.3823 31.451 29.8805 33.0145 28.5742L24.7072 24.6354ZM85.3647 24.6354L77.0574 28.5742C78.615 29.8792 80.121 31.3851 81.4259 32.9427L85.3647 24.6354ZM20.7684 51.849L12.103 54.9284L20.7684 58.0078C20.6824 57.017 20.6252 56.013 20.6252 55C20.6252 53.9376 20.6739 52.8869 20.7684 51.849ZM89.2319 51.9206C89.3221 52.935 89.3752 53.9623 89.3752 55C89.3752 56.0377 89.3221 57.065 89.2319 58.0794L97.8973 55L89.2319 51.9206ZM81.4259 76.9857C80.1129 78.5573 78.6272 80.1106 77.0574 81.4258L85.3647 85.3646L81.4259 76.9857ZM28.646 77.0573L24.7072 85.293L32.9429 81.3542C31.4027 80.0614 29.9388 78.5974 28.646 77.0573ZM51.9207 89.2318L55.0002 97.8971L58.0796 89.2318C57.0652 89.322 56.0379 89.375 55.0002 89.375C53.9625 89.375 52.9351 89.322 51.9207 89.2318Z" stroke="url(#paint7_radial_102_4779)" stroke-width="0.846462" stroke-linecap="square"/>
</g>
<g id="g4046">
<g id="g3931">
<path id="path7498" d="M71.9598 31.864C78.0876 36.3565 82.1799 43.0993 83.3362 50.609C84.4926 58.1187 82.6183 65.7802 78.1258 71.9081C73.6333 78.0359 66.8905 82.1281 59.3808 83.2845C51.871 84.4408 44.2095 82.5666 38.0817 78.0741C31.9538 73.5816 27.8616 66.8388 26.7052 59.329C25.5489 51.8193 27.4231 44.1578 31.9156 38.03C36.4081 31.9021 43.1509 27.8099 50.6607 26.6536C58.1704 25.4972 65.8319 27.3714 71.9598 31.864Z" fill="#FFC62D" stroke="#FFC62D" stroke-linecap="square"/>
<path id="path7500" d="M82.1093 51.3179C83.3602 58.546 81.7059 65.8628 77.5103 71.6586C73.3148 77.4543 66.9216 81.2544 59.7373 82.2227C52.553 83.191 45.166 81.2484 39.2014 76.822C33.2368 72.3957 29.1832 65.8483 27.9323 58.6201C26.6814 51.392 28.3357 44.0753 32.5313 38.2795C36.7269 32.4837 43.12 28.6837 50.3043 27.7153C57.4887 26.747 64.8756 28.6897 70.8402 33.116C76.8048 37.5424 80.8584 44.0898 82.1093 51.3179Z" fill="url(#paint8_radial_102_4779)"/>
<path id="path7502" d="M70.6041 33.7129C76.2415 37.8459 80.0062 44.049 81.07 50.9577C82.1338 57.8664 80.4096 64.9148 76.2767 70.5522C72.1437 76.1896 65.9405 79.9543 59.0318 81.0181C52.1231 82.0819 45.0748 80.3577 39.4373 76.2247C33.7999 72.0918 30.0352 65.8886 28.9714 58.9799C27.9076 52.0712 29.6318 45.0229 33.7648 39.3854C37.8977 33.748 44.1009 29.9833 51.0096 28.9195C57.9183 27.8557 64.9666 29.5799 70.6041 33.7129Z" stroke="url(#paint9_linear_102_4779)" stroke-linecap="square"/>
</g>
</g>
</g>
<g id="g6668">
<path id="path6670" d="M72.2105 51.5293C67.0065 51.5293 62.792 55.082 61.3967 59.8366C59.8081 59.0028 58.0864 58.4043 56.1689 58.4043C49.8439 58.4043 44.7105 63.5376 44.7105 69.8626C44.7105 71.1893 45.083 72.4011 45.4983 73.5866C42.3508 75.3529 40.1272 78.603 40.1272 82.4668C40.1272 88.1593 44.7472 92.7793 50.4397 92.7793C50.8456 92.7793 93.5754 92.7793 93.9814 92.7793C99.6738 92.7793 104.294 88.1593 104.294 82.4668C104.294 78.603 102.07 75.3529 98.9228 73.5866C99.3381 72.4011 99.7105 71.1893 99.7105 69.8626C99.7105 63.5376 94.5772 58.4043 88.2522 58.4043C86.3347 58.4043 84.613 59.0028 83.0243 59.8366C81.6291 55.082 77.4145 51.5293 72.2105 51.5293Z" fill="#C4C5C2"/>
<path id="path6672" d="M72.2105 52.675C67.1923 52.675 63.6772 55.7362 62.1373 61.4831C60.6055 60.6956 58.5908 59.5733 56.7417 59.5733C50.5164 59.5733 45.8445 64.0165 45.8445 69.9903C45.8445 71.2433 46.4569 73.046 46.8573 74.1656C43.8222 75.8339 41.2729 78.4981 41.2729 81.8944C41.2729 87.2708 44.8163 91.6342 51.2172 91.6342C51.6086 91.6342 92.8123 91.6342 93.2037 91.6342C99.554 91.6342 103.148 87.2708 103.148 81.8944C103.148 78.2452 100.599 75.7832 97.5636 74.115C97.964 72.9954 98.6271 71.2432 98.6271 69.9903C98.6271 64.0165 93.7783 59.5227 87.6792 59.5227C85.8301 59.5227 83.9167 60.6451 82.3848 61.4325C80.8979 55.8832 77.2286 52.675 72.2105 52.675Z" fill="url(#paint10_linear_102_4779)"/>
<g id="g6674">
<path id="path6676" d="M80.2314 62.9876C80.2314 65.1149 79.3863 67.155 77.8821 68.6592C76.3779 70.1634 74.3378 71.0085 72.2105 71.0085C70.0833 71.0085 68.0432 70.1634 66.539 68.6592C65.0348 67.155 64.1897 65.1149 64.1897 62.9876C64.1897 60.8604 65.0348 58.8203 66.539 57.3161C68.0432 55.8119 70.0833 54.9668 72.2105 54.9668C74.3378 54.9668 76.3779 55.8119 77.8821 57.3161C79.3863 58.8203 80.2314 60.8604 80.2314 62.9876Z" fill="#C4C5C2"/>
<path id="path6678" d="M80.2314 62.9876C80.2314 65.1149 79.3863 67.155 77.8821 68.6592C76.3779 70.1634 74.3378 71.0085 72.2105 71.0085C70.0833 71.0085 68.0432 70.1634 66.539 68.6592C65.0348 67.155 64.1897 65.1149 64.1897 62.9876C64.1897 60.8604 65.0348 58.8203 66.539 57.3161C68.0432 55.8119 70.0833 54.9668 72.2105 54.9668C74.3378 54.9668 76.3779 55.8119 77.8821 57.3161C79.3863 58.8203 80.2314 60.8604 80.2314 62.9876Z" fill="url(#paint11_linear_102_4779)"/>
</g>
<path id="rect6680" d="M96.273 68.7168H50.4397V89.3418H96.273V68.7168Z" fill="#C4C5C2"/>
<path id="path6682" d="M57.3144 82.467C57.3144 84.2904 56.5901 86.0391 55.3008 87.3284C54.0115 88.6177 52.2628 89.342 50.4394 89.342C48.6161 89.342 46.8674 88.6177 45.5781 87.3284C44.2888 86.0391 43.5645 84.2904 43.5645 82.467C43.5645 80.6437 44.2888 78.895 45.5781 77.6057C46.8674 76.3164 48.6161 75.592 50.4394 75.592C52.2628 75.592 54.0115 76.3164 55.3008 77.6057C56.5901 78.895 57.3144 80.6437 57.3144 82.467Z" fill="#C4C5C2"/>
<g id="g6684">
<path id="path6686" d="M96.2731 69.8624C96.2731 71.9896 95.428 74.0298 93.9239 75.534C92.4197 77.0382 90.3795 77.8832 88.2523 77.8832C86.125 77.8832 84.0849 77.0382 82.5807 75.534C81.0765 74.0298 80.2314 71.9896 80.2314 69.8624C80.2314 67.7351 81.0765 65.695 82.5807 64.1908C84.0849 62.6866 86.125 61.8416 88.2523 61.8416C90.3795 61.8416 92.4197 62.6866 93.9239 64.1908C95.428 65.695 96.2731 67.7351 96.2731 69.8624Z" fill="#C4C5C2"/>
<path id="path6688" d="M96.2731 69.8624C96.2731 71.9896 95.428 74.0298 93.9239 75.534C92.4197 77.0382 90.3795 77.8832 88.2523 77.8832C86.125 77.8832 84.0849 77.0382 82.5807 75.534C81.0765 74.0298 80.2314 71.9896 80.2314 69.8624C80.2314 67.7351 81.0765 65.695 82.5807 64.1908C84.0849 62.6866 86.125 61.8416 88.2523 61.8416C90.3795 61.8416 92.4197 62.6866 93.9239 64.1908C95.428 65.695 96.2731 67.7351 96.2731 69.8624Z" fill="url(#paint12_linear_102_4779)"/>
</g>
<g id="g6690">
<path id="path6692" d="M64.1896 69.8626C64.1896 71.9899 63.3446 74.03 61.8404 75.5342C60.3362 77.0384 58.296 77.8835 56.1688 77.8835C54.0415 77.8835 52.0014 77.0384 50.4972 75.5342C48.993 74.03 48.1479 71.9899 48.1479 69.8626C48.1479 67.7354 48.993 65.6953 50.4972 64.1911C52.0014 62.6869 54.0415 61.8418 56.1688 61.8418C58.296 61.8418 60.3362 62.6869 61.8404 64.1911C63.3446 65.6953 64.1896 67.7354 64.1896 69.8626Z" fill="#C4C5C2"/>
<path id="path6694" d="M64.1896 69.8626C64.1896 71.9899 63.3446 74.03 61.8404 75.5342C60.3362 77.0384 58.296 77.8835 56.1688 77.8835C54.0415 77.8835 52.0014 77.0384 50.4972 75.5342C48.993 74.03 48.1479 71.9899 48.1479 69.8626C48.1479 67.7354 48.993 65.6953 50.4972 64.1911C52.0014 62.6869 54.0415 61.8418 56.1688 61.8418C58.296 61.8418 60.3362 62.6869 61.8404 64.1911C63.3446 65.6953 64.1896 67.7354 64.1896 69.8626Z" fill="url(#paint13_linear_102_4779)"/>
</g>
<g id="g6696">
<path id="path6698" d="M69.8472 61.9133C61.6444 61.9133 55.0229 68.6064 55.0229 76.8092C55.0229 82.242 58.1154 86.7499 62.4709 89.3417H77.2951C81.6506 86.7499 84.743 82.1704 84.743 76.7375C84.743 68.5348 78.0499 61.9133 69.8472 61.9133Z" fill="#C4C5C2"/>
<path id="path6700" d="M69.9188 61.8418C61.6963 61.8418 55.0229 68.5152 55.0229 76.7376C55.0229 82.1835 58.1049 86.7438 62.4709 89.3418H77.3667C81.7327 86.7438 84.8146 82.1835 84.8146 76.7376C84.8146 68.5151 78.1413 61.8418 69.9188 61.8418Z" fill="url(#paint14_linear_102_4779)"/>
</g>
<path id="path6702" d="M57.3147 82.4668C57.3147 84.2902 56.5904 86.0388 55.301 87.3281C54.0117 88.6174 52.2631 89.3418 50.4397 89.3418C48.6163 89.3418 46.8677 88.6174 45.5783 87.3281C44.289 86.0388 43.5647 84.2902 43.5647 82.4668C43.5647 80.6434 44.289 78.8948 45.5783 77.6054C46.8677 76.3161 48.6163 75.5918 50.4397 75.5918C52.2631 75.5918 54.0117 76.3161 55.301 77.6054C56.5904 78.8948 57.3147 80.6434 57.3147 82.4668Z" fill="url(#paint15_linear_102_4779)"/>
<path id="path6704" fill-rule="evenodd" clip-rule="evenodd" d="M100.756 70.2432C100.753 76.3953 93.2644 78.7543 93.2644 78.7543C93.2644 78.7543 98.6469 75.0282 98.6197 70.2637L100.756 70.2432Z" fill="#888A85"/>
<g id="g6706">
<path id="path6708" d="M89.398 80.1755C89.398 82.6066 88.4322 84.9382 86.7132 86.6573C84.9941 88.3763 82.6625 89.3421 80.2314 89.3421C77.8002 89.3421 75.4687 88.3763 73.7496 86.6573C72.0305 84.9382 71.0647 82.6066 71.0647 80.1755C71.0647 77.7443 72.0305 75.4127 73.7496 73.6937C75.4687 71.9746 77.8002 71.0088 80.2314 71.0088C82.6625 71.0088 84.9941 71.9746 86.7132 73.6937C88.4322 75.4127 89.398 77.7443 89.398 80.1755Z" fill="#C4C5C2"/>
<path id="path6710" d="M89.398 80.1755C89.398 82.6066 88.4322 84.9382 86.7132 86.6573C84.9941 88.3763 82.6625 89.3421 80.2314 89.3421C77.8002 89.3421 75.4687 88.3763 73.7496 86.6573C72.0305 84.9382 71.0647 82.6066 71.0647 80.1755C71.0647 77.7443 72.0305 75.4127 73.7496 73.6937C75.4687 71.9746 77.8002 71.0088 80.2314 71.0088C82.6625 71.0088 84.9941 71.9746 86.7132 73.6937C88.4322 75.4127 89.398 77.7443 89.398 80.1755Z" fill="url(#paint16_linear_102_4779)"/>
</g>
</g>
</g>
</g>
<defs>
<linearGradient id="paint0_linear_102_4779" x1="16.1146" y1="43.3897" x2="48.2137" y2="64.2024" gradientUnits="userSpaceOnUse">
<stop stop-color="white"/>
<stop offset="1" stop-color="white" stop-opacity="0"/>
</linearGradient>
<linearGradient id="paint1_linear_102_4779" x1="35.7587" y1="39.4265" x2="40.9866" y2="47.7338" gradientUnits="userSpaceOnUse">
<stop stop-color="white"/>
<stop offset="1" stop-color="white" stop-opacity="0"/>
</linearGradient>
<linearGradient id="paint2_linear_102_4779" x1="49.3656" y1="42.5773" x2="57.458" y2="55.0383" gradientUnits="userSpaceOnUse">
<stop stop-color="white"/>
<stop offset="1" stop-color="white" stop-opacity="0"/>
</linearGradient>
<linearGradient id="paint3_linear_102_4779" x1="15.9" y1="45.8506" x2="24.2547" y2="54.316" gradientUnits="userSpaceOnUse">
<stop stop-color="white"/>
<stop offset="1" stop-color="white" stop-opacity="0"/>
</linearGradient>
<linearGradient id="paint4_linear_102_4779" x1="25.0984" y1="52.4346" x2="34.342" y2="64.3207" gradientUnits="userSpaceOnUse">
<stop stop-color="white"/>
<stop offset="1" stop-color="white" stop-opacity="0"/>
</linearGradient>
<linearGradient id="paint5_linear_102_4779" x1="12.5175" y1="60.2113" x2="18.9509" y2="65.9739" gradientUnits="userSpaceOnUse">
<stop stop-color="white"/>
<stop offset="1" stop-color="white" stop-opacity="0"/>
</linearGradient>
<linearGradient id="paint6_linear_102_4779" x1="35.9693" y1="51.7715" x2="47.3079" y2="63.9527" gradientUnits="userSpaceOnUse">
<stop stop-color="white"/>
<stop offset="1" stop-color="white" stop-opacity="0"/>
</linearGradient>
<radialGradient id="paint7_radial_102_4779" cx="0" cy="0" r="1" gradientUnits="userSpaceOnUse" gradientTransform="translate(55.0002 54.9642) scale(44.161 44.197)">
<stop stop-color="white" stop-opacity="0"/>
<stop offset="0.75" stop-color="white" stop-opacity="0"/>
<stop offset="1" stop-color="white"/>
</radialGradient>
<radialGradient id="paint8_radial_102_4779" cx="0" cy="0" r="1" gradientUnits="userSpaceOnUse" gradientTransform="translate(47.8778 43.0121) rotate(60) scale(38.6154 32.6257)">
<stop stop-color="#FFF7C2" stop-opacity="0.638298"/>
<stop offset="0.593941" stop-color="#FCAF3E" stop-opacity="0.183486"/>
<stop offset="0.838506" stop-color="#FCAF3E" stop-opacity="0.504587"/>
<stop offset="1" stop-color="#FCAF3E"/>
</radialGradient>
<linearGradient id="paint9_linear_102_4779" x1="42.4805" y1="35.3482" x2="64.2634" y2="79.6229" gradientUnits="userSpaceOnUse">
<stop stop-color="#FFF9C6"/>
<stop offset="0.541667" stop-color="#FFF28C"/>
<stop offset="1" stop-color="#FFEA85"/>
</linearGradient>
<linearGradient id="paint10_linear_102_4779" x1="50.4893" y1="61.723" x2="82.5885" y2="82.5357" gradientUnits="userSpaceOnUse">
<stop stop-color="white"/>
<stop offset="1" stop-color="white" stop-opacity="0"/>
</linearGradient>
<linearGradient id="paint11_linear_102_4779" x1="70.1337" y1="57.7597" x2="75.3616" y2="66.067" gradientUnits="userSpaceOnUse">
<stop stop-color="white"/>
<stop offset="1" stop-color="white" stop-opacity="0"/>
</linearGradient>
<linearGradient id="paint12_linear_102_4779" x1="83.7406" y1="60.9106" x2="91.833" y2="73.3715" gradientUnits="userSpaceOnUse">
<stop stop-color="white"/>
<stop offset="1" stop-color="white" stop-opacity="0"/>
</linearGradient>
<linearGradient id="paint13_linear_102_4779" x1="50.2748" y1="64.1839" x2="58.6295" y2="72.6493" gradientUnits="userSpaceOnUse">
<stop stop-color="white"/>
<stop offset="1" stop-color="white" stop-opacity="0"/>
</linearGradient>
<linearGradient id="paint14_linear_102_4779" x1="59.4732" y1="70.7678" x2="68.7167" y2="82.654" gradientUnits="userSpaceOnUse">
<stop stop-color="white"/>
<stop offset="1" stop-color="white" stop-opacity="0"/>
</linearGradient>
<linearGradient id="paint15_linear_102_4779" x1="46.8925" y1="78.5445" x2="53.3259" y2="84.3072" gradientUnits="userSpaceOnUse">
<stop stop-color="white"/>
<stop offset="1" stop-color="white" stop-opacity="0"/>
</linearGradient>
<linearGradient id="paint16_linear_102_4779" x1="70.3443" y1="70.1047" x2="81.6829" y2="82.286" gradientUnits="userSpaceOnUse">
<stop stop-color="white"/>
<stop offset="1" stop-color="white" stop-opacity="0"/>
</linearGradient>
</defs>
</svg>
