<svg width="192" height="192" viewBox="0 0 192 192" fill="none" xmlns="http://www.w3.org/2000/svg">
<path d="M110.396 1.92918L110.214 1.89849C109.999 1.86227 109.796 2.00649 109.759 2.2206L108.039 12.3665C108.002 12.5806 108.147 12.7835 108.362 12.8197L108.544 12.8504C108.758 12.8866 108.962 12.7424 108.998 12.5283L110.719 2.38244C110.755 2.16833 110.611 1.9654 110.396 1.92918Z" fill="white" fill-opacity="0.36"/>
<path d="M78.4008 2.22588L78.1859 2.2629C77.9667 2.30065 77.8198 2.50841 77.8576 2.72695L79.6369 12.9987C79.6747 13.2172 79.8831 13.3638 80.1023 13.326L80.3172 13.289C80.5364 13.2512 80.6834 13.0435 80.6455 12.8249L78.8662 2.55323C78.8284 2.33469 78.62 2.18813 78.4008 2.22588Z" fill="white" fill-opacity="0.36"/>
<path d="M81.7568 1.38939L81.5418 1.42642C81.3227 1.46417 81.1757 1.67193 81.2136 1.89047L82.9929 12.1622C83.0307 12.3807 83.2391 12.5273 83.4582 12.4895L83.6732 12.4525C83.8923 12.4148 84.0393 12.207 84.0015 11.9885L82.2222 1.71675C82.1843 1.49821 81.976 1.35165 81.7568 1.38939Z" fill="white" fill-opacity="0.36"/>
<path d="M85.1128 0.552663L84.8978 0.589686C84.6786 0.627434 84.5317 0.835196 84.5695 1.05374L86.3488 11.3255C86.3867 11.544 86.595 11.6906 86.8142 11.6528L87.0291 11.6158C87.2483 11.578 87.3953 11.3703 87.3574 11.1517L85.5781 0.880014C85.5403 0.661475 85.3319 0.514915 85.1128 0.552663Z" fill="white" fill-opacity="0.36"/>
<path d="M88.9055 0.503486L88.6883 0.523776C88.4669 0.544463 88.3041 0.740238 88.3247 0.961052L89.2944 11.3397C89.3151 11.5605 89.5113 11.7227 89.7328 11.702L89.9499 11.6817C90.1714 11.6611 90.3342 11.4653 90.3135 11.2445L89.3438 0.865846C89.3232 0.645033 89.1269 0.482799 88.9055 0.503486Z" fill="white" fill-opacity="0.36"/>
<path d="M103.236 0.034051L103.018 0.0220872C102.796 0.00988875 102.606 0.179515 102.594 0.400959L102.022 10.8092C102.01 11.0306 102.18 11.22 102.402 11.2322L102.62 11.2442C102.842 11.2564 103.032 11.0868 103.044 10.8653L103.616 0.457097C103.628 0.235654 103.458 0.0462494 103.236 0.034051Z" fill="white" fill-opacity="0.36"/>
<path d="M106.587 0.72383L106.37 0.707474C106.148 0.690796 105.954 0.856552 105.938 1.0777L105.152 11.472C105.135 11.6932 105.301 11.8859 105.523 11.9026L105.74 11.919C105.962 11.9357 106.156 11.7699 106.172 11.5488L106.958 1.15445C106.975 0.933303 106.809 0.740508 106.587 0.72383Z" fill="white" fill-opacity="0.36"/>
<path d="M113.738 2.4433L113.556 2.41229C113.337 2.37493 113.129 2.52185 113.091 2.74045L111.302 13.1802C111.264 13.3988 111.411 13.6063 111.631 13.6437L111.813 13.6747C112.032 13.712 112.24 13.5651 112.277 13.3465L114.067 2.90678C114.104 2.68818 113.957 2.48067 113.738 2.4433Z" fill="white" fill-opacity="0.36"/>
<path d="M74.7753 3.08664L74.4652 3.16032C74.2714 3.20636 74.1517 3.40035 74.1979 3.59362L76.5816 13.5709C76.6277 13.7642 76.8223 13.8835 77.0161 13.8375L77.3262 13.7638C77.52 13.7178 77.6397 13.5238 77.5936 13.3305L75.2099 3.35321C75.1637 3.15995 74.9691 3.0406 74.7753 3.08664Z" fill="white" fill-opacity="0.36"/>
<path d="M117.437 3.33655L116.944 3.23219C116.826 3.20721 116.711 3.28222 116.686 3.39972L114.526 13.5303C114.501 13.6478 114.576 13.7633 114.694 13.7883L115.187 13.8926C115.304 13.9176 115.42 13.8426 115.445 13.7251L117.605 3.59453C117.63 3.47703 117.555 3.36153 117.437 3.33655Z" fill="white" fill-opacity="0.36"/>
<path d="M92.6208 5.76458e-05L92.4027 8.56427e-05C92.1803 0.000114188 92 0.179923 92.0001 0.401701L92.0014 10.8256C92.0014 11.0474 92.1817 11.2272 92.4041 11.2271L92.6223 11.2271C92.8447 11.2271 93.0249 11.0473 93.0249 10.8255L93.0236 0.401569C93.0236 0.179792 92.8432 2.91002e-05 92.6208 5.76458e-05Z" fill="white" fill-opacity="0.36"/>
<path d="M99.0965 0.0236431L98.8784 0.0216462C98.656 0.0196101 98.474 0.197739 98.4719 0.419507L98.372 10.843C98.3699 11.0648 98.5484 11.2462 98.7708 11.2483L98.9889 11.2502C99.2113 11.2523 99.3933 11.0742 99.3955 10.8524L99.4953 0.428877C99.4975 0.207109 99.3189 0.0256791 99.0965 0.0236431Z" fill="white" fill-opacity="0.36"/>
<path d="M71.3991 3.58445L70.656 3.79272C70.5401 3.82523 70.4725 3.94533 70.5051 4.06097L73.361 14.1925C73.3936 14.3082 73.5141 14.3756 73.6301 14.3431L74.3731 14.1348C74.4891 14.1023 74.5567 13.9822 74.5241 13.8666L71.6681 3.73499C71.6355 3.61934 71.5151 3.55194 71.3991 3.58445Z" fill="white" fill-opacity="0.36"/>
<path d="M120.624 4.17493L120.56 4.15783C120.318 4.0941 120.07 4.23798 120.006 4.4792L117.46 14.0881C117.396 14.3293 117.54 14.5765 117.782 14.6402L117.847 14.6573C118.089 14.7211 118.337 14.5772 118.401 14.336L120.947 4.7271C121.011 4.48588 120.866 4.23866 120.624 4.17493Z" fill="white" fill-opacity="0.36"/>
<path d="M67.8835 4.76593L67.5626 4.86377C67.3499 4.92861 67.2302 5.1531 67.2952 5.36518L70.3172 15.2215C70.3822 15.4336 70.6074 15.553 70.82 15.4881L71.141 15.3903C71.3537 15.3255 71.4734 15.101 71.4083 14.8889L68.3864 5.03254C68.3213 4.82045 68.0962 4.70109 67.8835 4.76593Z" fill="white" fill-opacity="0.36"/>
<path d="M121.87 10.4133C120.981 13.2586 120.487 15.6353 120.765 15.7219C121.044 15.8085 121.99 13.5721 122.879 10.7268C123.768 7.8815 124.262 5.50477 123.984 5.41821C123.705 5.33165 122.759 7.56804 121.87 10.4133Z" fill="white" fill-opacity="0.36"/>
<path d="M64.4834 6.2669L64.4515 6.27746C64.1438 6.37955 63.9773 6.71109 64.0797 7.01798L67.0509 15.9246C67.1533 16.2315 67.4858 16.3975 67.7936 16.2954L67.8254 16.2848C68.1332 16.1827 68.2997 15.8512 68.1973 15.5443L65.226 6.63772C65.1236 6.33084 64.7911 6.16481 64.4834 6.2669Z" fill="white" fill-opacity="0.36"/>
<path d="M127.678 6.90361L127.254 6.74392C127.141 6.70146 127.015 6.75813 126.973 6.87051L123.438 16.1988C123.395 16.3112 123.452 16.4367 123.565 16.4792L123.989 16.6389C124.101 16.6813 124.227 16.6246 124.27 16.5123L127.805 7.18396C127.847 7.07159 127.79 6.94607 127.678 6.90361Z" fill="white" fill-opacity="0.36"/>
<path d="M61.3725 7.52017L60.7768 7.74698C60.6599 7.79148 60.6014 7.92204 60.646 8.03858L64.3033 17.589C64.348 17.7055 64.4789 17.7639 64.5958 17.7194L65.1914 17.4926C65.3083 17.4481 65.3669 17.3176 65.3222 17.201L61.6649 7.6506C61.6203 7.53406 61.4893 7.47566 61.3725 7.52017Z" fill="white" fill-opacity="0.36"/>
<path d="M130.749 7.73793L130.717 7.7255C130.515 7.64486 130.286 7.74293 130.205 7.94456L126.516 17.1413C126.435 17.343 126.533 17.5718 126.736 17.6524L126.767 17.6649C126.969 17.7455 127.198 17.6474 127.279 17.4458L130.968 8.24902C131.049 8.0474 130.951 7.81857 130.749 7.73793Z" fill="white" fill-opacity="0.36"/>
<path d="M57.9658 8.63358L57.2629 8.95153C57.1531 9.00115 57.1046 9.13007 57.1543 9.23947L61.4381 18.6561C61.4878 18.7655 61.6171 18.8139 61.7268 18.7643L62.4297 18.4464C62.5394 18.3967 62.588 18.2678 62.5383 18.1584L58.2545 8.74181C58.2048 8.63241 58.0755 8.58395 57.9658 8.63358Z" fill="white" fill-opacity="0.36"/>
<path d="M134.201 9.00519L133.848 8.8499C133.734 8.79955 133.6 8.85127 133.549 8.96541L129.46 18.2119C129.409 18.3261 129.461 18.4594 129.575 18.5097L129.929 18.665C130.043 18.7154 130.177 18.6637 130.227 18.5495L134.317 9.30301C134.368 9.18887 134.316 9.05553 134.201 9.00519Z" fill="white" fill-opacity="0.36"/>
<path d="M137.566 10.222L137.491 10.1848C137.304 10.0923 137.077 10.1683 136.985 10.3546L132.232 19.9011C132.14 20.0874 132.216 20.3133 132.403 20.4057L132.478 20.4429C132.664 20.5354 132.891 20.4593 132.984 20.2731L137.736 10.7265C137.829 10.5403 137.753 10.3144 137.566 10.222Z" fill="white" fill-opacity="0.36"/>
<path d="M140.652 11.8399L140.353 11.6879C140.241 11.6313 140.105 11.6755 140.048 11.7867L135.241 21.1936C135.185 21.3048 135.229 21.4408 135.34 21.4974L135.639 21.6493C135.751 21.706 135.887 21.6618 135.944 21.5506L140.751 12.1437C140.808 12.0325 140.763 11.8965 140.652 11.8399Z" fill="white" fill-opacity="0.36"/>
<path d="M144.048 13.4916L143.598 13.2307C143.47 13.1563 143.306 13.1996 143.231 13.3274L137.804 22.6256C137.729 22.7534 137.773 22.9173 137.901 22.9917L138.351 23.2526C138.479 23.3269 138.643 23.2836 138.718 23.1559L144.145 13.8576C144.219 13.7298 144.176 13.5659 144.048 13.4916Z" fill="white" fill-opacity="0.36"/>
<path d="M48.2296 13.1879L47.8778 13.3832C47.6834 13.4911 47.6136 13.7356 47.7217 13.9294L52.928 23.2567C53.0362 23.4505 53.2814 23.5202 53.4758 23.4123L53.8276 23.217C54.022 23.1091 54.0918 22.8646 53.9837 22.6708L48.7773 13.3435C48.6692 13.1497 48.424 13.0801 48.2296 13.1879Z" fill="white" fill-opacity="0.36"/>
<path d="M50.2296 12.1908L49.8778 12.3861C49.6834 12.4939 49.6136 12.7384 49.7217 12.9322L54.928 22.2596C55.0362 22.4533 55.2814 22.523 55.4758 22.4151L55.8276 22.2198C56.022 22.112 56.0918 21.8675 55.9837 21.6737L50.7773 12.3463C50.6692 12.1526 50.424 12.0829 50.2296 12.1908Z" fill="white" fill-opacity="0.36"/>
<path d="M52.4244 10.6782L52.0726 10.8735C51.8782 10.9814 51.8084 11.2259 51.9166 11.4197L57.1229 20.747C57.231 20.9408 57.4763 21.0105 57.6706 20.9026L58.0225 20.7073C58.2168 20.5995 58.2866 20.3549 58.1785 20.1612L52.9722 10.8338C52.864 10.64 52.6188 10.5704 52.4244 10.6782Z" fill="white" fill-opacity="0.36"/>
<path d="M54.4244 9.68107L54.0726 9.87636C53.8782 9.98422 53.8084 10.2287 53.9166 10.4225L59.1229 19.7499C59.231 19.9436 59.4763 20.0133 59.6706 19.9054L60.0225 19.7102C60.2168 19.6023 60.2866 19.3578 60.1785 19.164L54.9722 9.83665C54.864 9.64287 54.6188 9.57321 54.4244 9.68107Z" fill="white" fill-opacity="0.36"/>
<path d="M45.3819 15.4358L44.9648 15.6857C44.8615 15.7476 44.8281 15.8812 44.8902 15.9842L50.084 24.6037C50.1461 24.7066 50.2801 24.7399 50.3833 24.6781L50.8004 24.4282C50.9037 24.3663 50.9371 24.2327 50.8751 24.1297L45.6812 15.5103C45.6192 15.4073 45.4852 15.374 45.3819 15.4358Z" fill="white" fill-opacity="0.36"/>
<path d="M146.694 16.11L146.179 15.7962C146.072 15.7312 145.933 15.7648 145.867 15.8713L140.884 24.0116C140.819 24.1181 140.853 24.2571 140.96 24.3221L141.475 24.6359C141.582 24.7009 141.721 24.6673 141.787 24.5608L146.77 16.4205C146.835 16.314 146.801 16.175 146.694 16.11Z" fill="white" fill-opacity="0.36"/>
<path d="M42.2591 17.0185L41.7728 17.3468C41.6692 17.4167 41.6421 17.5572 41.7122 17.6605L47.554 26.2643C47.6242 26.3676 47.765 26.3946 47.8686 26.3247L48.3549 25.9964C48.4585 25.9265 48.4856 25.786 48.4155 25.6827L42.5736 17.0789C42.5035 16.9756 42.3627 16.9485 42.2591 17.0185Z" fill="white" fill-opacity="0.36"/>
<path d="M149.83 17.5901L149.733 17.5234C149.535 17.3866 149.263 17.4359 149.126 17.6334L143.385 25.9006C143.248 26.0982 143.297 26.3692 143.495 26.506L143.592 26.5726C143.79 26.7094 144.062 26.6601 144.199 26.4626L149.94 18.1954C150.077 17.9978 150.028 17.7268 149.83 17.5901Z" fill="white" fill-opacity="0.36"/>
<path d="M39.2418 19.2633L38.7844 19.6032C38.6841 19.6778 38.6634 19.8193 38.7382 19.9193L45.2161 28.5854C45.2908 28.6855 45.4328 28.7061 45.5331 28.6315L45.9905 28.2916C46.0908 28.217 46.1115 28.0755 46.0367 27.9755L39.5588 19.3094C39.484 19.2093 39.3421 19.1887 39.2418 19.2633Z" fill="white" fill-opacity="0.36"/>
<path d="M92.0291 26.4654V35.7933C92.0292 35.9443 91.9708 36.0896 91.866 36.1987C91.7613 36.3079 91.6183 36.3724 91.467 36.3789L89.2269 36.4876C89.151 36.491 89.0753 36.4788 89.0042 36.4518C88.9331 36.4247 88.8681 36.3833 88.8132 36.3302C88.7583 36.277 88.7146 36.2131 88.6848 36.1424C88.655 36.0717 88.6396 35.9956 88.6396 35.9188L88.7403 20.4504C88.7398 20.3246 88.7836 20.2023 88.8645 20.1034C88.9453 20.0045 89.0584 19.9351 89.185 19.9066C90.5777 19.5943 91.618 19.9372 92.3059 20.9356C94.4593 24.0421 96.6574 27.0817 98.9002 30.0543C98.9466 30.114 99.0106 30.1577 99.0832 30.1791C99.1558 30.2005 99.2334 30.1986 99.3049 30.1736C99.3763 30.1486 99.4381 30.1018 99.4814 30.0399C99.5247 29.9779 99.5474 29.904 99.5462 29.8284L99.3029 20.8101C99.2976 20.6791 99.3336 20.5498 99.4059 20.4402C99.4781 20.3307 99.5829 20.2465 99.7056 20.1994C100.511 19.8815 101.367 19.8118 102.273 19.9902C102.401 20.0155 102.516 20.0844 102.599 20.1852C102.681 20.2859 102.726 20.4122 102.726 20.5424V35.6427C102.726 35.7654 102.692 35.886 102.627 35.9909C102.561 36.0958 102.468 36.1809 102.357 36.2367C101.09 36.8557 99.9741 36.7135 99.1099 35.4837C96.979 32.4386 94.7753 29.3795 92.4989 26.3064C92.4662 26.2619 92.4201 26.229 92.3674 26.2124C92.3146 26.1958 92.2579 26.1964 92.2055 26.2141C92.1531 26.2318 92.1078 26.2658 92.076 26.3109C92.0443 26.3561 92.0279 26.4102 92.0291 26.4654Z" fill="white"/>
<path d="M152.113 20.0659L152.073 20.0363C151.87 19.8893 151.587 19.9335 151.44 20.1351L145.626 28.0843C145.479 28.2859 145.523 28.5685 145.726 28.7155L145.766 28.7451C145.968 28.8921 146.252 28.8478 146.399 28.6462L152.212 20.697C152.36 20.4955 152.315 20.2129 152.113 20.0659Z" fill="white" fill-opacity="0.36"/>
<path d="M43.5199 29.4268C43.5532 29.4433 43.5823 29.4672 43.6049 29.4966C43.6275 29.526 43.6431 29.5602 43.6504 29.5966C43.6577 29.6329 43.6565 29.6705 43.647 29.7063C43.6375 29.7421 43.6198 29.7753 43.5954 29.8033L43.2263 30.2383C43.1842 30.2877 43.1322 30.3276 43.0735 30.3555C43.0149 30.3834 42.951 30.3986 42.8861 30.4002C42.8211 30.4018 42.7566 30.3897 42.6967 30.3646C42.6368 30.3396 42.5828 30.3023 42.5384 30.2551C41.2799 28.8831 36.179 23.2361 36.4726 21.5797C36.4812 21.5242 36.5062 21.4728 36.5447 21.4319C36.5831 21.3911 36.6332 21.3626 36.6887 21.3501C36.7443 21.3376 36.8027 21.3416 36.8568 21.3616C36.9109 21.3816 36.9582 21.4168 36.9928 21.4626L42.1189 28.5233C42.2979 28.7687 42.5244 28.9556 42.7984 29.0838L43.5199 29.4268Z" fill="white" fill-opacity="0.36"/>
<path d="M155.17 22.2057L155.015 22.078C154.84 21.934 154.581 21.9589 154.436 22.1336L148.267 29.5959C148.123 29.7705 148.148 30.0289 148.323 30.1729L148.478 30.3006C148.654 30.4446 148.913 30.4197 149.057 30.2451L155.226 22.7828C155.37 22.6081 155.346 22.3497 155.17 22.2057Z" fill="white" fill-opacity="0.36"/>
<path d="M36.8425 28.592C38.8507 30.9284 40.6812 32.6494 40.931 32.4359C41.1808 32.2224 39.7553 30.1553 37.747 27.8189C35.7388 25.4826 33.9084 23.7616 33.6586 23.9751C33.4088 24.1886 34.8343 26.2557 36.8425 28.592Z" fill="white" fill-opacity="0.36"/>
<path d="M158.099 24.3806L157.936 24.2364C157.773 24.0925 157.523 24.1077 157.379 24.2704L150.897 31.5761C150.753 31.7387 150.768 31.9872 150.931 32.1311L151.095 32.2753C151.258 32.4191 151.507 32.4039 151.651 32.2413L158.133 24.9356C158.277 24.7729 158.262 24.5244 158.099 24.3806Z" fill="white" fill-opacity="0.36"/>
<path d="M31.1813 26.4904L30.9604 26.6958C30.8147 26.8312 30.8067 27.0589 30.9426 27.2042L37.8315 34.5707C37.9674 34.716 38.1957 34.724 38.3414 34.5885L38.5623 34.3831C38.708 34.2476 38.716 34.0199 38.5801 33.8746L31.6911 26.5081C31.5553 26.3628 31.327 26.3549 31.1813 26.4904Z" fill="white" fill-opacity="0.36"/>
<path d="M160.529 26.9954L160.505 26.972C160.329 26.801 160.047 26.8044 159.876 26.9797L153.243 33.7574C153.071 33.9326 153.075 34.2133 153.25 34.3844L153.275 34.4077C153.45 34.5788 153.732 34.5753 153.903 34.4001L160.536 27.6224C160.708 27.4471 160.704 27.1664 160.529 26.9954Z" fill="white" fill-opacity="0.36"/>
<path d="M28.6662 29.1142L28.6543 29.126C28.4764 29.3015 28.4749 29.5875 28.6509 29.7648L35.0479 36.2108C35.2239 36.3881 35.5107 36.3896 35.6886 36.2141L35.7005 36.2023C35.8784 36.0268 35.8799 35.7408 35.7039 35.5635L29.3069 29.1175C29.1309 28.9402 28.8441 28.9387 28.6662 29.1142Z" fill="white" fill-opacity="0.36"/>
<path d="M159.885 33.2184C162.028 31.1338 163.591 29.267 163.378 29.0488C163.164 28.8305 161.254 30.3435 159.112 32.4281C156.97 34.5127 155.406 36.3795 155.62 36.5977C155.833 36.816 157.743 35.303 159.885 33.2184Z" fill="white" fill-opacity="0.36"/>
<path d="M33.7631 37.9623L27.044 31.8013C26.8564 31.6293 26.5645 31.6415 26.392 31.8286L26.3693 31.8532C26.1968 32.0403 26.209 32.3314 26.3966 32.5034L33.1157 38.6643C33.3033 38.8363 33.5952 38.8241 33.7677 38.6371L33.7904 38.6124C33.9629 38.4254 33.9506 38.1343 33.7631 37.9623Z" fill="white" fill-opacity="0.36"/>
<path d="M164.533 31.8208L157.644 38.3631C157.432 38.5639 157.424 38.8975 157.625 39.1083L157.66 39.1446C157.861 39.3554 158.196 39.3636 158.407 39.1628L165.297 32.6205C165.508 32.4198 165.516 32.0862 165.315 31.8754L165.28 31.839C165.079 31.6282 164.745 31.6201 164.533 31.8208Z" fill="white" fill-opacity="0.36"/>
<path d="M22.7455 49.1006L15.574 44.2066C15.4068 44.0925 15.2007 44.1027 15.1138 44.2294L15.0767 44.2833C14.9897 44.41 15.0548 44.6052 15.222 44.7193L22.3935 49.6133C22.5607 49.7274 22.7668 49.7172 22.8537 49.5905L22.8908 49.5366C22.9777 49.4099 22.9127 49.2147 22.7455 49.1006Z" fill="white" fill-opacity="0.36"/>
<path d="M24.9961 47.2678L17.5895 42.2134C17.4169 42.0955 17.2135 42.0923 17.1353 42.2062L17.1019 42.2548C17.0237 42.3687 17.1003 42.5565 17.273 42.6744L24.6796 47.7288C24.8523 47.8466 25.0557 47.8498 25.1339 47.7359L25.1672 47.6874C25.2454 47.5735 25.1688 47.3856 24.9961 47.2678Z" fill="white" fill-opacity="0.36"/>
<path d="M27.827 45.4447L19.8129 39.2611C19.6261 39.1169 19.3795 39.1225 19.2623 39.2736L19.2123 39.338C19.095 39.4891 19.1514 39.7285 19.3383 39.8727L27.3523 46.0563C27.5391 46.2005 27.7857 46.1949 27.903 46.0437L27.9529 45.9794C28.0702 45.8283 28.0138 45.5889 27.827 45.4447Z" fill="white" fill-opacity="0.36"/>
<path d="M30.827 40.4447L22.8129 34.2611C22.6261 34.1169 22.3795 34.1225 22.2623 34.2736L22.2123 34.338C22.095 34.4891 22.1514 34.7285 22.3383 34.8727L30.3523 41.0563C30.5391 41.2005 30.7857 41.1949 30.903 41.0437L30.9529 40.9794C31.0702 40.8283 31.0138 40.5889 30.827 40.4447Z" fill="white" fill-opacity="0.36"/>
<path d="M28.827 42.4447L20.8129 36.2611C20.6261 36.1169 20.3795 36.1225 20.2623 36.2736L20.2123 36.338C20.095 36.4891 20.1514 36.7285 20.3383 36.8727L28.3523 43.0563C28.5391 43.2005 28.7857 43.1949 28.903 43.0437L28.9529 42.9794C29.0702 42.8283 29.0138 42.5889 28.827 42.4447Z" fill="white" fill-opacity="0.36"/>
<path d="M22.2427 51.867L14.7094 47.1972C14.5338 47.0883 14.313 47.1257 14.2162 47.2807L14.175 47.3468C14.0783 47.5018 14.1423 47.7158 14.3179 47.8247L21.8512 52.4946C22.0269 52.6035 22.2477 52.566 22.3444 52.411L22.3856 52.3449C22.4823 52.1899 22.4184 51.9759 22.2427 51.867Z" fill="white" fill-opacity="0.36"/>
<path d="M19.5439 55.602L11.6785 51.1864C11.4951 51.0835 11.277 51.1228 11.1914 51.2743L11.1549 51.3389C11.0693 51.4904 11.1486 51.6966 11.332 51.7996L19.1974 56.2152C19.3808 56.3181 19.5988 56.2788 19.6845 56.1273L19.7209 56.0628C19.8065 55.9113 19.7273 55.705 19.5439 55.602Z" fill="white" fill-opacity="0.36"/>
<path d="M21.2262 53.9853L13.6973 49.2019C13.5217 49.0904 13.3034 49.1189 13.2097 49.2655L13.1697 49.3279C13.076 49.4745 13.1423 49.6838 13.3179 49.7953L20.8468 54.5787C21.0224 54.6902 21.2407 54.6618 21.3344 54.5152L21.3743 54.4527C21.4681 54.3061 21.4017 54.0968 21.2262 53.9853Z" fill="white" fill-opacity="0.36"/>
<path d="M168.072 33.8532L159.497 40.6547C159.403 40.7294 159.387 40.8663 159.462 40.9603L159.797 41.3793C159.872 41.4733 160.009 41.4889 160.103 41.4141L168.678 34.6127C168.772 34.5379 168.788 34.4011 168.713 34.3071L168.379 33.888C168.304 33.794 168.167 33.7784 168.072 33.8532Z" fill="white" fill-opacity="0.36"/>
<path d="M169.896 36.4531L161.94 42.9006C161.717 43.0812 161.683 43.4079 161.864 43.6302L161.927 43.7081C162.109 43.9304 162.436 43.9642 162.659 43.7835L170.615 37.3361C170.838 37.1554 170.872 36.8288 170.691 36.6065L170.627 36.5285C170.446 36.3062 170.119 36.2725 169.896 36.4531Z" fill="white" fill-opacity="0.36"/>
<path d="M171.965 39.5808L163.89 45.6044C163.679 45.7622 163.635 46.061 163.794 46.2719L163.814 46.2987C163.972 46.5095 164.272 46.5526 164.483 46.3949L172.558 40.3712C172.769 40.2135 172.813 39.9146 172.654 39.7038L172.634 39.677C172.476 39.4661 172.176 39.423 171.965 39.5808Z" fill="white" fill-opacity="0.36"/>
<path d="M174.357 42.1533L165.556 48.0511C165.413 48.1464 165.375 48.3388 165.471 48.4806L165.77 48.925C165.866 49.0669 166.059 49.1047 166.201 49.0093L175.003 43.1115C175.145 43.0161 175.183 42.8238 175.088 42.6819L174.788 42.2375C174.693 42.0956 174.5 42.0579 174.357 42.1533Z" fill="white" fill-opacity="0.36"/>
<path d="M175.948 45.3853L167.52 50.596C167.292 50.7373 167.221 51.0364 167.363 51.2641L167.381 51.2926C167.522 51.5203 167.822 51.5905 168.051 51.4492L176.479 46.2385C176.707 46.0973 176.777 45.7982 176.636 45.5704L176.618 45.542C176.476 45.3142 176.176 45.2441 175.948 45.3853Z" fill="white" fill-opacity="0.36"/>
<path d="M177.932 48.2734L169.135 53.3584C168.854 53.5206 168.759 53.8789 168.921 54.1587L168.938 54.1877C169.101 54.4675 169.46 54.5628 169.741 54.4006L178.538 49.3156C178.819 49.1534 178.914 48.7951 178.752 48.5153L178.735 48.4864C178.572 48.2065 178.213 48.1112 177.932 48.2734Z" fill="white" fill-opacity="0.36"/>
<path d="M180.605 51.1983L170.801 56.1149C170.561 56.2353 170.465 56.527 170.585 56.7664L170.593 56.7814C170.714 57.0208 171.006 57.1172 171.246 56.9968L181.05 52.0802C181.29 51.9598 181.387 51.6681 181.266 51.4287L181.258 51.4137C181.138 51.1743 180.845 51.0778 180.605 51.1983Z" fill="white" fill-opacity="0.36"/>
<path d="M181.336 54.5049L172.318 58.9685C172.127 59.063 172.049 59.294 172.144 59.4843L172.263 59.7241C172.358 59.9145 172.59 59.9922 172.781 59.8977L181.798 55.434C181.989 55.3395 182.067 55.1086 181.972 54.9182L181.853 54.6784C181.758 54.4881 181.527 54.4104 181.336 54.5049Z" fill="white" fill-opacity="0.36"/>
<path d="M182.219 58.0294L173.823 61.9689C173.609 62.0693 173.517 62.3234 173.618 62.5367L173.661 62.6275C173.761 62.8407 174.016 62.9322 174.23 62.8319L182.626 58.8923C182.84 58.792 182.932 58.5378 182.831 58.3246L182.788 58.2338C182.688 58.0206 182.433 57.929 182.219 58.0294Z" fill="white" fill-opacity="0.36"/>
<path d="M16.217 61.9274L8.85897 58.2692C8.74701 58.2136 8.611 58.259 8.55518 58.3706L8.45036 58.5802C8.39454 58.6919 8.44005 58.8275 8.55201 58.8832L15.91 62.5413C16.022 62.597 16.158 62.5516 16.2138 62.44L16.3186 62.2303C16.3745 62.1187 16.329 61.9831 16.217 61.9274Z" fill="white" fill-opacity="0.36"/>
<path d="M15.2645 63.7974L7.79158 60.3786C7.67787 60.3266 7.5434 60.3763 7.49123 60.4897L7.39328 60.7026C7.34111 60.816 7.39099 60.9501 7.5047 61.0021L14.9776 64.4209C15.0913 64.4729 15.2258 64.4232 15.2779 64.3098L15.3759 64.0969C15.4281 63.9835 15.3782 63.8494 15.2645 63.7974Z" fill="white" fill-opacity="0.36"/>
<path d="M17.0559 59.4179L9.69784 55.7597C9.58588 55.7041 9.44987 55.7494 9.39404 55.8611L9.28923 56.0707C9.23341 56.1824 9.27892 56.318 9.39088 56.3736L16.7489 60.0318C16.8609 60.0875 16.9969 60.0421 17.0527 59.9304L17.1575 59.7208C17.2133 59.6092 17.1678 59.4735 17.0559 59.4179Z" fill="white" fill-opacity="0.36"/>
<path d="M17.7338 56.9081L10.3758 53.25C10.2639 53.1943 10.1278 53.2397 10.072 53.3513L9.96721 53.5609C9.91139 53.6726 9.95689 53.8082 10.0689 53.8639L17.4269 57.522C17.5388 57.5777 17.6749 57.5323 17.7307 57.4207L17.8355 57.211C17.8913 57.0994 17.8458 56.9638 17.7338 56.9081Z" fill="white" fill-opacity="0.36"/>
<path d="M183.975 61.4182L175.259 64.4956C175.05 64.5696 174.94 64.7991 175.014 65.0082L175.031 65.0555C175.105 65.2645 175.335 65.374 175.545 65.2999L184.26 62.2225C184.47 62.1485 184.58 61.919 184.505 61.71L184.489 61.6627C184.414 61.4536 184.184 61.3441 183.975 61.4182Z" fill="white" fill-opacity="0.36"/>
<path d="M185.44 64.3191L176.148 67.6735C176.03 67.7159 175.969 67.8455 176.012 67.9628L176.172 68.4033C176.214 68.5206 176.344 68.5812 176.462 68.5388L185.755 65.1844C185.872 65.1419 185.933 65.0124 185.89 64.8951L185.731 64.4546C185.688 64.3373 185.558 64.2766 185.44 64.3191Z" fill="white" fill-opacity="0.36"/>
<path d="M13.9879 70.9038L4.54116 67.9518C4.4262 67.9158 4.3038 67.9796 4.26778 68.0943L4.12728 68.5413C4.09126 68.656 4.15524 68.778 4.2702 68.8139L13.717 71.766C13.8319 71.8019 13.9543 71.7381 13.9904 71.6234L14.1309 71.1764C14.1669 71.0618 14.1029 70.9397 13.9879 70.9038Z" fill="white" fill-opacity="0.36"/>
<path d="M14.8271 68.394L5.38027 65.442C5.26531 65.4061 5.14291 65.4699 5.10689 65.5845L4.96639 66.0316C4.93037 66.1462 4.99435 66.2682 5.10931 66.3042L14.5561 69.2562C14.6711 69.2921 14.7935 69.2283 14.8295 69.1137L14.97 68.6666C15.006 68.552 14.942 68.43 14.8271 68.394Z" fill="white" fill-opacity="0.36"/>
<path d="M15.5367 66.3658L6.43325 62.4821C6.32247 62.4348 6.1943 62.486 6.14697 62.5965L5.96238 63.0272C5.91505 63.1376 5.96649 63.2655 6.07727 63.3127L15.1807 67.1965C15.2915 67.2437 15.4197 67.1925 15.467 67.0821L15.6516 66.6514C15.6989 66.5409 15.6475 66.4131 15.5367 66.3658Z" fill="white" fill-opacity="0.36"/>
<path d="M186.632 67.8744L177.096 70.709C176.977 70.7446 176.908 70.8704 176.944 70.99L177.069 71.4069C177.104 71.5264 177.231 71.5944 177.351 71.5588L186.886 68.7242C187.006 68.6886 187.074 68.5628 187.038 68.4432L186.914 68.0263C186.878 67.9068 186.752 67.8388 186.632 67.8744Z" fill="white" fill-opacity="0.36"/>
<path d="M12.925 73.9969L3.3514 71.1146C3.23607 71.0799 3.11435 71.145 3.07953 71.26L2.93889 71.7245C2.90407 71.8395 2.96933 71.9609 3.08466 71.9956L12.6583 74.8778C12.7736 74.9126 12.8954 74.8475 12.9302 74.7325L13.0708 74.268C13.1056 74.153 13.0404 74.0316 12.925 73.9969Z" fill="white" fill-opacity="0.36"/>
<path d="M187.311 72.2098L178.065 74.753C177.187 74.9984 177.153 74.912 177.964 74.4937C179.072 73.9248 188.208 69.8506 188.275 72.3269C188.287 72.7675 188.138 72.8289 187.831 72.511L187.629 72.3018C187.589 72.259 187.538 72.2277 187.482 72.2115C187.425 72.1953 187.366 72.1947 187.311 72.2098Z" fill="white" fill-opacity="0.36"/>
<path d="M188.411 74.8404L178.505 76.976C178.383 77.0024 178.305 77.1226 178.332 77.2445L178.406 77.588C178.433 77.7099 178.553 77.7874 178.676 77.761L188.581 75.6254C188.704 75.599 188.781 75.4788 188.755 75.3569L188.68 75.0135C188.654 74.8915 188.533 74.814 188.411 74.8404Z" fill="white" fill-opacity="0.36"/>
<path d="M12.3165 76.0481L2.54816 73.8351C2.43068 73.8084 2.31381 73.8818 2.28712 73.999L2.22021 74.2927C2.19352 74.4098 2.26712 74.5263 2.38459 74.553L12.1529 76.766C12.2704 76.7926 12.3873 76.7192 12.4139 76.602L12.4809 76.3084C12.5075 76.1912 12.434 76.0747 12.3165 76.0481Z" fill="white" fill-opacity="0.36"/>
<path d="M11.3265 77.9724L1.52782 75.897C1.40998 75.872 1.29416 75.9471 1.26913 76.0646L1.20638 76.3592C1.18135 76.4767 1.25658 76.5922 1.37443 76.6171L11.1731 78.6926C11.2909 78.7175 11.4067 78.6425 11.4318 78.525L11.4945 78.2304C11.5195 78.1129 11.4443 77.9974 11.3265 77.9724Z" fill="white" fill-opacity="0.36"/>
<path d="M188.904 78.2075L179.673 80.1304C179.51 80.1644 179.405 80.324 179.439 80.4868L179.453 80.5523C179.487 80.7151 179.647 80.8195 179.81 80.7855L189.041 78.8626C189.204 78.8286 189.309 78.669 189.275 78.5062L189.261 78.4407C189.227 78.2779 189.067 78.1735 188.904 78.2075Z" fill="white" fill-opacity="0.36"/>
<path d="M188.904 80.7174L179.673 82.6403C179.51 82.6744 179.405 82.8339 179.439 82.9967L179.453 83.0623C179.487 83.2251 179.647 83.3295 179.81 83.2955L189.041 81.3726C189.204 81.3385 189.309 81.179 189.275 81.0162L189.261 80.9506C189.227 80.7878 189.067 80.6834 188.904 80.7174Z" fill="white" fill-opacity="0.36"/>
<path d="M185.487 86.7294C188.441 86.3782 190.81 85.8852 190.78 85.6283C190.749 85.3713 188.329 85.4478 185.376 85.799C182.422 86.1502 180.052 86.6432 180.083 86.9001C180.114 87.157 182.533 87.0806 185.487 86.7294Z" fill="white" fill-opacity="0.36"/>
<path d="M31.1286 98.3699C31.1464 98.4521 31.192 98.5256 31.2576 98.5784C31.3232 98.6312 31.405 98.66 31.4893 98.66C31.5736 98.66 31.6554 98.6312 31.721 98.5784C31.7867 98.5256 31.8322 98.4521 31.8501 98.3699L34.0062 88.2891C34.0352 88.1478 34.1127 88.0207 34.2258 87.9293C34.3388 87.8379 34.4805 87.7877 34.6271 87.7871L37.2027 87.8122C37.2584 87.8126 37.3134 87.8259 37.3631 87.851C37.4129 87.8761 37.4561 87.9124 37.4895 87.9569C37.5228 88.0015 37.5453 88.0532 37.5552 88.1079C37.5652 88.1627 37.5622 88.2189 37.5467 88.2724L33.5028 103.64C33.4645 103.783 33.3808 103.909 33.2642 103.999C33.1476 104.09 33.0046 104.14 32.8568 104.142L30.5916 104.176C30.4363 104.179 30.2845 104.129 30.1611 104.035C30.0377 103.94 29.9499 103.807 29.9121 103.657L27.3364 93.8356C27.3126 93.7525 27.2624 93.6792 27.1935 93.6268C27.1245 93.5743 27.0404 93.5455 26.9536 93.5445C26.8669 93.5436 26.7822 93.5706 26.7121 93.6215C26.642 93.6725 26.5903 93.7446 26.5646 93.8273L23.9386 103.406C23.8974 103.558 23.8099 103.694 23.6882 103.794C23.5665 103.895 23.4166 103.955 23.2591 103.967L21.0694 104.176C20.8882 104.192 20.7073 104.143 20.5584 104.039C20.4095 103.935 20.3023 103.782 20.2556 103.607L16.2705 88.3309C16.251 88.2584 16.2487 88.1823 16.2637 88.1087C16.2787 88.0351 16.3106 87.9659 16.357 87.9067C16.4033 87.8475 16.4628 87.7999 16.5308 87.7675C16.5988 87.7351 16.6734 87.7189 16.7487 87.7202H19.1146C19.2545 87.7206 19.3899 87.7682 19.4983 87.8549C19.6067 87.9417 19.6815 88.0624 19.7102 88.1971L21.9838 98.5958C21.999 98.6723 22.0398 98.7413 22.0996 98.7916C22.1594 98.8418 22.2345 98.8703 22.3127 98.8722C22.3909 98.8742 22.4674 98.8495 22.5296 98.8023C22.5918 98.7551 22.636 98.6882 22.655 98.6125L25.3061 88.3309C25.3395 88.1984 25.4072 88.0765 25.5027 87.9769C25.5982 87.8772 25.7183 87.8033 25.8515 87.762C27.3281 87.327 28.2006 87.7286 28.662 89.2261C29.652 92.4106 30.4742 95.4586 31.1286 98.3699Z" fill="white"/>
<path d="M167.771 94.555L173.56 94.6554C173.702 94.6585 173.838 94.7127 173.942 94.8081C174.047 94.9034 174.114 95.0334 174.13 95.1741L174.273 96.5544C174.28 96.6248 174.272 96.6959 174.25 96.7632C174.228 96.8304 174.192 96.8924 174.145 96.9451C174.097 96.9978 174.04 97.0401 173.975 97.0693C173.91 97.0986 173.84 97.1141 173.769 97.1149L167.67 97.1735C167.592 97.1746 167.515 97.1911 167.444 97.222C167.373 97.253 167.308 97.2978 167.254 97.3538C167.2 97.4099 167.158 97.4761 167.13 97.5485C167.102 97.621 167.089 97.6982 167.091 97.7758L167.175 100.854C167.18 100.978 167.231 101.095 167.319 101.181C167.406 101.267 167.523 101.315 167.645 101.315H173.904C174.043 101.315 174.176 101.366 174.28 101.457C174.383 101.548 174.449 101.673 174.466 101.808L174.65 103.473C174.66 103.549 174.653 103.626 174.63 103.7C174.608 103.773 174.57 103.841 174.519 103.898C174.469 103.956 174.406 104.002 174.336 104.034C174.266 104.066 174.19 104.083 174.113 104.084L164.264 104.167C164.202 104.168 164.141 104.157 164.084 104.134C164.026 104.111 163.974 104.077 163.929 104.034C163.885 103.99 163.849 103.938 163.825 103.881C163.8 103.823 163.787 103.761 163.786 103.699L163.685 89.0084C163.684 88.8396 163.717 88.6723 163.781 88.5161C163.845 88.3598 163.94 88.2177 164.061 88.098C164.181 87.9782 164.323 87.8832 164.481 87.8183C164.638 87.7535 164.807 87.7201 164.977 87.7201H173.602C173.774 87.7198 173.943 87.7664 174.091 87.8548C174.239 87.9433 174.36 88.0702 174.441 88.222C176.395 91.8528 169.172 90.5143 167.553 90.5812C167.473 90.5843 167.395 90.6034 167.324 90.6375C167.252 90.6715 167.188 90.7197 167.135 90.7791C167.083 90.8385 167.043 90.908 167.018 90.9833C166.993 91.0585 166.984 91.1381 166.991 91.217L167.217 94.0363C167.23 94.1768 167.293 94.3076 167.395 94.4035C167.498 94.4993 167.632 94.5533 167.771 94.555Z" fill="white"/>
<path d="M185.996 90.0539C189.024 89.9326 191.469 89.621 191.459 89.3579C191.448 89.0947 188.985 88.9797 185.957 89.101C182.929 89.2222 180.483 89.5338 180.494 89.797C180.505 90.0601 182.968 90.1752 185.996 90.0539Z" fill="white" fill-opacity="0.36"/>
<path d="M190.819 92.4465L181.138 92.5981C180.944 92.6012 180.789 92.7609 180.792 92.955L180.793 93.0219C180.796 93.2159 180.956 93.3707 181.151 93.3677L190.831 93.2161C191.026 93.213 191.181 93.0532 191.178 92.8592L191.177 92.7923C191.174 92.5983 191.014 92.4434 190.819 92.4465Z" fill="white" fill-opacity="0.36"/>
<path d="M191.093 95.5731L180.876 95.3775C180.482 95.37 180.157 95.6822 180.149 96.0748L180.144 96.3258C180.137 96.7184 180.45 97.0428 180.844 97.0504L191.06 97.246C191.454 97.2535 191.779 96.9413 191.787 96.5487L191.792 96.2977C191.799 95.9051 191.486 95.5807 191.093 95.5731Z" fill="white"/>
<path d="M11.0885 95.4852L0.584742 95.4486C0.265034 95.4475 0.00495468 95.7051 0.00383868 96.0239L0.00208156 96.5258C0.000965565 96.8446 0.259235 97.104 0.578943 97.1051L11.0827 97.1416C11.4024 97.1427 11.6625 96.8852 11.6636 96.5664L11.6654 96.0645C11.6665 95.7457 11.4082 95.4863 11.0885 95.4852Z" fill="white"/>
<path d="M186.222 103.498C189.387 103.652 191.964 103.564 191.977 103.301C191.99 103.038 189.434 102.7 186.268 102.545C183.103 102.391 180.526 102.479 180.513 102.742C180.5 103.005 183.056 103.343 186.222 103.498Z" fill="white" fill-opacity="0.36"/>
<path d="M185.383 106.007C188.548 106.162 191.125 106.074 191.138 105.811C191.151 105.548 188.595 105.209 185.429 105.055C182.264 104.9 179.687 104.989 179.674 105.252C179.661 105.515 182.217 105.853 185.383 106.007Z" fill="white" fill-opacity="0.36"/>
<path d="M186.222 100.988C189.387 101.142 191.964 101.054 191.977 100.791C191.99 100.528 189.434 100.19 186.268 100.035C183.103 99.881 180.526 99.9691 180.513 100.232C180.5 100.495 183.056 100.834 186.222 100.988Z" fill="white" fill-opacity="0.36"/>
<path d="M190.131 110.165L179.646 108.584C179.522 108.566 179.406 108.65 179.388 108.774L179.35 109.022C179.331 109.145 179.417 109.26 179.54 109.279L190.026 110.86C190.149 110.879 190.265 110.794 190.283 110.671L190.321 110.423C190.34 110.299 190.255 110.184 190.131 110.165Z" fill="white" fill-opacity="0.36"/>
<path d="M189.508 113.646L179.399 111.668C179.28 111.645 179.166 111.722 179.143 111.84L179.084 112.135C179.061 112.253 179.138 112.368 179.256 112.391L189.366 114.368C189.484 114.392 189.599 114.315 189.622 114.197L189.68 113.901C189.704 113.784 189.627 113.669 189.508 113.646Z" fill="white" fill-opacity="0.36"/>
<path d="M189.01 117.184L179.735 114.998C179.613 114.969 179.491 115.044 179.463 115.166L179.385 115.491C179.357 115.613 179.432 115.734 179.554 115.763L188.829 117.949C188.95 117.978 189.072 117.903 189.101 117.781L189.178 117.456C189.207 117.334 189.132 117.213 189.01 117.184Z" fill="white" fill-opacity="0.36"/>
<path d="M182.672 120.032C185.536 120.744 187.906 121.129 187.966 120.891C188.025 120.654 185.751 119.884 182.888 119.172C180.024 118.46 177.654 118.075 177.595 118.313C177.535 118.551 179.809 119.32 182.672 120.032Z" fill="white" fill-opacity="0.36"/>
<path d="M14.5543 120.782L5.05919 123.803C4.86497 123.865 4.75777 124.072 4.81975 124.266L4.87077 124.425C4.93275 124.619 5.14045 124.726 5.33467 124.664L14.8298 121.642C15.024 121.58 15.1312 121.373 15.0692 121.18L15.0182 121.02C14.9562 120.827 14.7485 120.72 14.5543 120.782Z" fill="white" fill-opacity="0.36"/>
<path d="M12.8763 117.435L3.38121 120.457C3.18699 120.519 3.07979 120.726 3.14177 120.919L3.19279 121.079C3.25477 121.272 3.46247 121.379 3.65669 121.317L13.1518 118.296C13.346 118.234 13.4532 118.027 13.3912 117.833L13.3402 117.674C13.2782 117.48 13.0705 117.373 12.8763 117.435Z" fill="white" fill-opacity="0.36"/>
<path d="M12.0374 114.089L2.54234 117.11C2.34812 117.172 2.24092 117.379 2.30291 117.573L2.35392 117.732C2.4159 117.926 2.6236 118.033 2.81782 117.971L12.3129 114.949C12.5071 114.888 12.6143 114.681 12.5524 114.487L12.5013 114.327C12.4394 114.134 12.2317 114.027 12.0374 114.089Z" fill="white" fill-opacity="0.36"/>
<path d="M11.1986 110.742L1.70348 113.764C1.50925 113.826 1.40205 114.033 1.46404 114.227L1.51505 114.386C1.57704 114.58 1.78473 114.687 1.97896 114.625L11.4741 111.603C11.6683 111.541 11.7755 111.334 11.7135 111.141L11.6625 110.981C11.6005 110.788 11.3928 110.681 11.1986 110.742Z" fill="white" fill-opacity="0.36"/>
<path d="M10.3595 107.396L0.864366 110.418C0.670143 110.48 0.562943 110.687 0.624928 110.88L0.675942 111.04C0.737926 111.233 0.945623 111.34 1.13984 111.278L10.6349 108.257C10.8292 108.195 10.9364 107.988 10.8744 107.794L10.8234 107.635C10.7614 107.441 10.5537 107.334 10.3595 107.396Z" fill="white" fill-opacity="0.36"/>
<path d="M10.6565 105.012L0.746435 106.072C0.543724 106.094 0.397018 106.275 0.418757 106.477L0.436649 106.643C0.458388 106.846 0.640341 106.992 0.843051 106.97L10.7531 105.91C10.9559 105.889 11.1026 105.707 11.0808 105.505L11.0629 105.339C11.0412 105.137 10.8592 104.99 10.6565 105.012Z" fill="white" fill-opacity="0.36"/>
<path d="M10.6565 101.666L0.746435 102.725C0.543724 102.747 0.397018 102.929 0.418757 103.131L0.436649 103.297C0.458388 103.499 0.640341 103.645 0.843051 103.624L10.7531 102.564C10.9559 102.542 11.1026 102.361 11.0808 102.159L11.0629 101.992C11.0412 101.79 10.8592 101.644 10.6565 101.666Z" fill="white" fill-opacity="0.36"/>
<path d="M10.6565 98.3195L0.746435 99.3792C0.543724 99.4009 0.397018 99.5823 0.418757 99.7845L0.436649 99.9508C0.458388 100.153 0.640341 100.299 0.843051 100.278L10.7531 99.2178C10.9559 99.1961 11.1026 99.0147 11.0808 98.8126L11.0629 98.6462C11.0412 98.4441 10.8592 98.2978 10.6565 98.3195Z" fill="white" fill-opacity="0.36"/>
<path d="M10.7526 93.3256L0.808251 92.6574C0.604839 92.6437 0.428829 92.7971 0.415122 92.9999L0.40384 93.1668C0.390133 93.3697 0.543918 93.5452 0.74733 93.5588L10.6917 94.2271C10.8951 94.2407 11.0711 94.0874 11.0848 93.8846L11.0961 93.7176C11.1098 93.5148 10.956 93.3393 10.7526 93.3256Z" fill="white" fill-opacity="0.36"/>
<path d="M10.7526 90.8159L0.808251 90.1477C0.604839 90.134 0.428829 90.2874 0.415122 90.4902L0.40384 90.6571C0.390133 90.86 0.543918 91.0355 0.74733 91.0491L10.6917 91.7174C10.8951 91.731 11.0711 91.5777 11.0848 91.3749L11.0961 91.2079C11.1098 91.0051 10.956 90.8296 10.7526 90.8159Z" fill="white" fill-opacity="0.36"/>
<path d="M10.7526 88.306L0.808251 87.6377C0.604839 87.6241 0.428829 87.7774 0.415122 87.9802L0.40384 88.1472C0.390133 88.35 0.543918 88.5255 0.74733 88.5392L10.6917 89.2074C10.8951 89.2211 11.0711 89.0677 11.0848 88.8649L11.0961 88.698C11.1098 88.4951 10.956 88.3196 10.7526 88.306Z" fill="white" fill-opacity="0.36"/>
<path d="M10.8124 86.7915L0.914442 85.6242C0.71198 85.6003 0.52844 85.7446 0.504495 85.9465L0.484787 86.1126C0.460841 86.3145 0.605558 86.4975 0.80802 86.5214L10.7059 87.6887C10.9084 87.7126 11.0919 87.5683 11.1159 87.3664L11.1356 87.2003C11.1595 86.9984 11.0148 86.8154 10.8124 86.7915Z" fill="white" fill-opacity="0.36"/>
<path d="M10.8124 84.2818L0.914442 83.1145C0.71198 83.0906 0.52844 83.2349 0.504495 83.4368L0.484787 83.6029C0.460841 83.8048 0.605558 83.9878 0.80802 84.0117L10.7059 85.179C10.9084 85.2029 11.0919 85.0586 11.1159 84.8567L11.1356 84.6906C11.1595 84.4887 11.0148 84.3057 10.8124 84.2818Z" fill="white" fill-opacity="0.36"/>
<path d="M11.6515 81.7718L1.75355 80.6045C1.55109 80.5807 1.36755 80.725 1.34361 80.9268L1.3239 81.093C1.29995 81.2949 1.44467 81.4779 1.64713 81.5018L11.5451 82.6691C11.7475 82.693 11.9311 82.5487 11.955 82.3468L11.9747 82.1806C11.9987 81.9787 11.8539 81.7957 11.6515 81.7718Z" fill="white" fill-opacity="0.36"/>
<path d="M11.5401 80.2226L1.70249 78.627C1.50126 78.5944 1.3116 78.7306 1.27887 78.9313L1.25193 79.0964C1.2192 79.2971 1.3558 79.4862 1.55703 79.5188L11.3947 81.1144C11.5959 81.147 11.7856 81.0108 11.8183 80.8102L11.8452 80.645C11.8779 80.4444 11.7414 80.2552 11.5401 80.2226Z" fill="white" fill-opacity="0.36"/>
<path d="M187.808 124.736L177.908 121.718C177.779 121.678 177.643 121.75 177.604 121.879L177.442 122.407C177.403 122.535 177.475 122.67 177.604 122.71L187.504 125.728C187.633 125.767 187.769 125.695 187.808 125.567L187.97 125.039C188.009 124.911 187.937 124.775 187.808 124.736Z" fill="white" fill-opacity="0.36"/>
<path d="M186.292 129.755L176.391 126.737C176.263 126.698 176.127 126.77 176.087 126.898L175.925 127.426C175.886 127.554 175.958 127.69 176.087 127.729L185.987 130.747C186.116 130.787 186.252 130.715 186.291 130.586L186.453 130.058C186.492 129.93 186.42 129.795 186.292 129.755Z" fill="white" fill-opacity="0.36"/>
<path d="M184.614 132.102L174.713 129.083C174.585 129.044 174.449 129.116 174.409 129.244L174.247 129.772C174.208 129.901 174.28 130.036 174.409 130.075L184.309 133.094C184.438 133.133 184.574 133.061 184.613 132.933L184.775 132.405C184.814 132.276 184.742 132.141 184.614 132.102Z" fill="white" fill-opacity="0.36"/>
<path d="M186.97 127.246L177.069 124.227C176.941 124.188 176.805 124.26 176.765 124.389L176.603 124.917C176.564 125.045 176.636 125.18 176.765 125.219L186.665 128.238C186.794 128.277 186.93 128.205 186.969 128.077L187.131 127.549C187.17 127.421 187.098 127.285 186.97 127.246Z" fill="white" fill-opacity="0.36"/>
<path d="M16.3743 126.909L7.15519 130.642C7.03928 130.689 6.98347 130.821 7.03054 130.936L7.1631 131.262C7.21017 131.377 7.34229 131.433 7.4582 131.386L16.6773 127.653C16.7932 127.606 16.849 127.475 16.8019 127.359L16.6694 127.033C16.6223 126.918 16.4902 126.862 16.3743 126.909Z" fill="white" fill-opacity="0.36"/>
<path d="M14.6963 123.563L5.47721 127.296C5.3613 127.343 5.30549 127.474 5.35256 127.59L5.48513 127.915C5.53219 128.031 5.66431 128.087 5.78023 128.04L14.9993 124.307C15.1152 124.26 15.171 124.128 15.124 124.013L14.9914 123.687C14.9443 123.571 14.8122 123.516 14.6963 123.563Z" fill="white" fill-opacity="0.36"/>
<path d="M17.4519 129.9L8.50459 133.966C8.33594 134.042 8.26153 134.241 8.33838 134.409L8.4358 134.622C8.51266 134.79 8.71168 134.864 8.88034 134.788L17.8277 130.722C17.9963 130.645 18.0708 130.447 17.9939 130.278L17.8965 130.065C17.8196 129.897 17.6206 129.823 17.4519 129.9Z" fill="white" fill-opacity="0.36"/>
<path d="M14.7295 135.914C17.5119 134.531 19.6535 133.182 19.5129 132.901C19.3723 132.619 17.0028 133.513 14.2204 134.896C11.438 136.279 9.29634 137.629 9.43693 137.91C9.57751 138.191 11.9471 137.298 14.7295 135.914Z" fill="white" fill-opacity="0.36"/>
<path d="M22.1829 138.445L12.9493 143.403C12.7535 143.508 12.6802 143.752 12.7856 143.947L12.8493 144.065C12.9547 144.26 13.1989 144.333 13.3948 144.228L22.6284 139.27C22.8242 139.165 22.8975 138.922 22.7921 138.726L22.7284 138.609C22.623 138.413 22.3788 138.34 22.1829 138.445Z" fill="white" fill-opacity="0.36"/>
<path d="M20.5049 135.099L11.2713 140.057C11.0755 140.162 11.0022 140.406 11.1077 140.601L11.1713 140.719C11.2767 140.914 11.521 140.987 11.7168 140.882L20.9504 135.924C21.1462 135.819 21.2195 135.576 21.1141 135.38L21.0504 135.262C20.945 135.067 20.7008 134.994 20.5049 135.099Z" fill="white" fill-opacity="0.36"/>
<path d="M23.4106 141.265L15.2074 146.297C15.0101 146.418 14.9485 146.676 15.0699 146.873L15.1139 146.944C15.2353 147.141 15.4936 147.202 15.6909 147.081L23.8942 142.049C24.0915 141.927 24.1531 141.67 24.0317 141.473L23.9877 141.402C23.8663 141.205 23.608 141.144 23.4106 141.265Z" fill="white" fill-opacity="0.36"/>
<path d="M25.2115 143.75L16.8709 149.403C16.6678 149.54 16.6151 149.816 16.7531 150.019L16.7625 150.032C16.9006 150.235 17.1771 150.288 17.3802 150.15L25.7208 144.498C25.9239 144.36 25.9767 144.084 25.8386 143.882L25.8292 143.868C25.6912 143.665 25.4146 143.613 25.2115 143.75Z" fill="white" fill-opacity="0.36"/>
<path d="M27.2163 146.314L19.4845 151.813C19.2771 151.961 19.2289 152.248 19.3768 152.455L19.3963 152.482C19.5443 152.689 19.8325 152.737 20.0399 152.589L27.7717 147.09C27.9791 146.943 28.0274 146.655 27.8794 146.448L27.8599 146.421C27.7119 146.214 27.4237 146.166 27.2163 146.314Z" fill="white" fill-opacity="0.36"/>
<path d="M28.9464 148.822L21.4223 154.898C21.2243 155.058 21.1937 155.348 21.3541 155.545L21.3858 155.584C21.5462 155.782 21.8367 155.812 22.0348 155.652L29.5588 149.577C29.7569 149.417 29.7874 149.127 29.6271 148.929L29.5954 148.89C29.435 148.693 29.1444 148.663 28.9464 148.822Z" fill="white" fill-opacity="0.36"/>
<path d="M28.2664 155.04C30.4929 153.15 32.1445 151.438 31.9553 151.217C31.7662 150.995 29.8078 152.347 27.5813 154.237C25.3548 156.126 23.7032 157.838 23.8924 158.059C24.0816 158.281 26.0399 156.929 28.2664 155.04Z" fill="white" fill-opacity="0.36"/>
<path d="M165.995 160.399L158.103 153.362C157.895 153.177 157.577 153.195 157.392 153.402L157.358 153.439C157.173 153.646 157.191 153.963 157.398 154.148L165.291 161.185C165.498 161.37 165.816 161.352 166.002 161.145L166.035 161.108C166.221 160.901 166.203 160.584 165.995 160.399Z" fill="white" fill-opacity="0.36"/>
<path d="M168.512 157.053L160.619 150.016C160.412 149.831 160.094 149.849 159.909 150.055L159.875 150.093C159.69 150.299 159.708 150.617 159.915 150.801L167.808 157.838C168.015 158.023 168.333 158.005 168.518 157.799L168.552 157.761C168.737 157.555 168.72 157.237 168.512 157.053Z" fill="white" fill-opacity="0.36"/>
<path d="M171.029 154.706L163.136 147.669C162.929 147.485 162.611 147.502 162.425 147.709L162.392 147.746C162.207 147.953 162.224 148.27 162.432 148.455L170.325 155.492C170.532 155.677 170.85 155.659 171.035 155.453L171.069 155.415C171.254 155.209 171.236 154.891 171.029 154.706Z" fill="white" fill-opacity="0.36"/>
<path d="M33.1527 153.719L26.2994 160.227C26.1384 160.38 26.1321 160.634 26.2855 160.795L26.3202 160.831C26.4736 160.992 26.7285 160.998 26.8896 160.845L33.7428 154.337C33.9039 154.184 33.9101 153.93 33.7567 153.769L33.722 153.733C33.5686 153.572 33.3137 153.566 33.1527 153.719Z" fill="white" fill-opacity="0.36"/>
<path d="M98.5898 168.568C100.654 163.799 88.4719 166.175 89.6716 159.558C90.6867 153.978 100.251 153.626 101.879 159.24C101.9 159.312 101.905 159.388 101.895 159.462C101.884 159.536 101.858 159.608 101.817 159.671C101.776 159.735 101.723 159.789 101.66 159.83C101.596 159.871 101.525 159.898 101.451 159.909L100.075 160.126C99.937 160.149 99.7956 160.133 99.6666 160.08C99.5376 160.027 99.4261 159.939 99.3449 159.825C97.7844 157.661 95.824 157.226 93.4637 158.52C93.3447 158.585 93.2434 158.678 93.1688 158.79C93.0942 158.902 93.0486 159.031 93.0358 159.164C92.6835 162.653 98.6821 162.126 100.905 163.95C107.29 169.187 94.3446 176.858 89.4702 168.601C89.4068 168.496 89.3783 168.374 89.3889 168.253C89.3994 168.131 89.4485 168.016 89.529 167.923C90.3735 166.975 91.2153 166.875 92.0542 167.622C93.9671 169.329 95.9554 169.822 98.0193 169.103C98.1464 169.058 98.2627 168.987 98.3609 168.895C98.4592 168.803 98.5371 168.691 98.5898 168.568Z" fill="white"/>
<path d="M163.069 162.384L155.912 155.467C155.705 155.268 155.376 155.273 155.176 155.479L155.094 155.563C154.894 155.769 154.9 156.097 155.106 156.296L162.263 163.213C162.47 163.412 162.799 163.407 162.999 163.201L163.081 163.117C163.281 162.911 163.275 162.583 163.069 162.384Z" fill="white" fill-opacity="0.36"/>
<path d="M35.2574 156.333L28.5781 162.947C28.417 163.106 28.4161 163.366 28.576 163.527L28.5997 163.55C28.7597 163.711 29.02 163.712 29.1811 163.552L35.8604 156.938C36.0215 156.779 36.0224 156.519 35.8624 156.359L35.8388 156.335C35.6788 156.174 35.4185 156.173 35.2574 156.333Z" fill="white" fill-opacity="0.36"/>
<path d="M153.516 157.73L153.091 158.11C152.998 158.194 152.99 158.336 153.074 158.429L160.279 166.437C160.363 166.53 160.506 166.537 160.599 166.454L161.023 166.074C161.117 165.991 161.124 165.848 161.041 165.755L153.835 157.748C153.752 157.655 153.609 157.647 153.516 157.73Z" fill="white" fill-opacity="0.36"/>
<path d="M34.6322 161.334C32.5872 163.359 31.0961 165.168 31.3018 165.374C31.5075 165.581 33.332 164.107 35.377 162.082C37.422 160.057 38.9131 158.248 38.7074 158.041C38.5017 157.834 36.6772 159.309 34.6322 161.334Z" fill="white" fill-opacity="0.36"/>
<path d="M40.4454 160.439L40.3423 160.353C40.1821 160.22 39.944 160.242 39.8106 160.402L33.9784 167.382C33.845 167.541 33.8666 167.779 34.0268 167.912L34.13 167.997C34.2901 168.131 34.5282 168.109 34.6617 167.949L40.4938 160.969C40.6273 160.809 40.6056 160.572 40.4454 160.439Z" fill="white" fill-opacity="0.36"/>
<path d="M148.528 161.917L148.421 161.998C148.226 162.147 148.19 162.425 148.339 162.62L154.611 170.77C154.76 170.964 155.039 171.001 155.234 170.852L155.341 170.77C155.536 170.621 155.572 170.343 155.423 170.149L149.151 161.998C149.002 161.804 148.722 161.768 148.528 161.917Z" fill="white" fill-opacity="0.36"/>
<path d="M151.044 160.243L150.938 160.325C150.743 160.474 150.706 160.752 150.856 160.947L157.128 169.097C157.277 169.291 157.556 169.328 157.751 169.179L157.858 169.097C158.052 168.948 158.089 168.67 157.94 168.476L151.668 160.325C151.518 160.131 151.239 160.094 151.044 160.243Z" fill="white" fill-opacity="0.36"/>
<path d="M39.5055 166.13C37.8324 168.344 36.662 170.279 36.8915 170.451C37.1209 170.624 38.6632 168.969 40.3363 166.755C42.0094 164.541 43.1797 162.606 42.9503 162.434C42.7209 162.261 41.1786 163.916 39.5055 166.13Z" fill="white" fill-opacity="0.36"/>
<path d="M146.399 164.102L145.957 164.434C145.857 164.509 145.837 164.651 145.912 164.75L152.062 172.888C152.137 172.988 152.279 173.008 152.379 172.933L152.821 172.6C152.921 172.525 152.941 172.384 152.866 172.284L146.716 164.146C146.641 164.047 146.499 164.027 146.399 164.102Z" fill="white" fill-opacity="0.36"/>
<path d="M45.5811 164.551L45.4611 164.459C45.2807 164.322 45.0227 164.356 44.8848 164.536L39.1675 171.993C39.0296 172.172 39.064 172.43 39.2444 172.567L39.3643 172.659C39.5447 172.796 39.8027 172.762 39.9406 172.582L45.658 165.125C45.7959 164.945 45.7614 164.688 45.5811 164.551Z" fill="white" fill-opacity="0.36"/>
<path d="M44.8195 170.235C43.1655 172.689 42.0243 174.812 42.2704 174.977C42.5165 175.142 44.0569 173.286 45.7108 170.832C47.3648 168.378 48.506 166.254 48.2599 166.089C48.0138 165.924 46.4734 167.78 44.8195 170.235Z" fill="white" fill-opacity="0.36"/>
<path d="M50.5563 168.175L50.4136 168.088C50.2322 167.976 49.9944 168.032 49.8824 168.213L45.033 176.042C44.921 176.223 44.9772 176.46 45.1586 176.572L45.3013 176.66C45.4827 176.771 45.7205 176.715 45.8325 176.535L50.6819 168.705C50.7939 168.524 50.7377 168.287 50.5563 168.175Z" fill="white" fill-opacity="0.36"/>
<path d="M53.7473 169.043L53.7032 169.018C53.4758 168.894 53.1902 168.976 53.0652 169.203L47.9402 178.499C47.8152 178.726 47.8982 179.011 48.1256 179.135L48.1697 179.159C48.3971 179.284 48.6828 179.201 48.8078 178.974L53.9327 169.679C54.0577 169.452 53.9747 169.167 53.7473 169.043Z" fill="white" fill-opacity="0.36"/>
<path d="M140.276 174.429C141.89 177.25 143.466 179.385 143.796 179.197C144.126 179.01 143.085 176.57 141.471 173.749C139.857 170.927 138.282 168.792 137.951 168.98C137.621 169.168 138.662 171.607 140.276 174.429Z" fill="white" fill-opacity="0.36"/>
<path d="M142.793 172.755C144.407 175.577 145.983 177.712 146.313 177.524C146.643 177.336 145.602 174.897 143.988 172.076C142.374 169.254 140.798 167.119 140.468 167.307C140.138 167.495 141.179 169.934 142.793 172.755Z" fill="white" fill-opacity="0.36"/>
<path d="M146.149 171.082C147.763 173.904 149.339 176.039 149.669 175.851C149.999 175.663 148.958 173.224 147.344 170.403C145.73 167.581 144.154 165.446 143.824 165.634C143.494 165.822 144.535 168.261 146.149 171.082Z" fill="white" fill-opacity="0.36"/>
<path d="M56.4632 171.272L56.0918 171.077C55.9851 171.021 55.8533 171.062 55.7973 171.169L50.9225 180.428C50.8665 180.534 50.9075 180.665 51.0142 180.721L51.3856 180.916C51.4923 180.971 51.6241 180.931 51.6801 180.824L56.555 171.565C56.611 171.459 56.5699 171.328 56.4632 171.272Z" fill="white" fill-opacity="0.36"/>
<path d="M135.838 171.286L135.584 171.414C135.422 171.495 135.357 171.691 135.438 171.852L140 180.896C140.081 181.057 140.277 181.121 140.439 181.041L140.694 180.913C140.855 180.832 140.92 180.636 140.839 180.475L136.278 171.431C136.197 171.27 136 171.206 135.838 171.286Z" fill="white" fill-opacity="0.36"/>
<path d="M59.1493 172.578L58.8444 172.438C58.735 172.388 58.6054 172.435 58.5551 172.545L54.4463 181.452C54.396 181.561 54.4439 181.691 54.5534 181.741L54.8582 181.881C54.9677 181.931 55.0972 181.883 55.1476 181.774L59.2563 172.866C59.3067 172.757 59.2587 172.628 59.1493 172.578Z" fill="white" fill-opacity="0.36"/>
<path d="M130.188 173.754L129.632 173.99C129.517 174.039 129.463 174.172 129.512 174.286L133.443 183.474C133.492 183.589 133.625 183.642 133.74 183.593L134.295 183.357C134.411 183.308 134.464 183.175 134.415 183.061L130.485 173.873C130.436 173.758 130.303 173.705 130.188 173.754Z" fill="white" fill-opacity="0.36"/>
<path d="M133.544 172.08L132.988 172.317C132.873 172.366 132.819 172.498 132.868 172.613L136.799 181.801C136.848 181.916 136.981 181.969 137.096 181.92L137.651 181.684C137.766 181.635 137.82 181.502 137.771 181.388L133.841 172.2C133.792 172.085 133.659 172.032 133.544 172.08Z" fill="white" fill-opacity="0.36"/>
<path d="M61.9775 174.102L61.7775 174.016C61.616 173.946 61.4282 174.019 61.358 174.18L57.7851 182.374C57.7149 182.535 57.7889 182.722 57.9504 182.792L58.1504 182.879C58.3119 182.949 58.4997 182.875 58.5699 182.714L62.1428 174.521C62.213 174.36 62.139 174.172 61.9775 174.102Z" fill="white" fill-opacity="0.36"/>
<path d="M126.837 174.499L126.728 174.54C126.493 174.628 126.375 174.889 126.464 175.122L130.046 184.576C130.135 184.809 130.396 184.927 130.63 184.839L130.74 184.798C130.974 184.709 131.092 184.449 131.004 184.215L127.421 174.762C127.333 174.528 127.071 174.411 126.837 174.499Z" fill="white" fill-opacity="0.36"/>
<path d="M65.184 175.059L64.7934 174.907C64.6813 174.863 64.5547 174.918 64.5107 175.03L60.8618 184.314C60.8178 184.426 60.8731 184.552 60.9853 184.596L61.3759 184.749C61.488 184.793 61.6146 184.737 61.6585 184.626L65.3075 175.341C65.3514 175.229 65.2962 175.103 65.184 175.059Z" fill="white" fill-opacity="0.36"/>
<path d="M68.5399 176.732L68.1494 176.58C68.0372 176.536 67.9107 176.591 67.8667 176.703L64.2178 185.987C64.1738 186.099 64.2291 186.226 64.3413 186.269L64.7318 186.422C64.844 186.466 64.9705 186.411 65.0145 186.299L68.6634 177.014C68.7074 176.902 68.6521 176.776 68.5399 176.732Z" fill="white" fill-opacity="0.36"/>
<path d="M123.677 175.659L123.614 175.681C123.361 175.772 123.229 176.049 123.32 176.302L126.759 185.879C126.849 186.131 127.128 186.263 127.381 186.172L127.444 186.15C127.697 186.059 127.829 185.782 127.738 185.529L124.299 175.952C124.209 175.7 123.93 175.568 123.677 175.659Z" fill="white" fill-opacity="0.36"/>
<path d="M71.2205 176.598L70.8505 176.489C70.7305 176.453 70.6045 176.521 70.569 176.641L67.4141 187.261C67.3786 187.381 67.4471 187.507 67.567 187.542L67.937 187.651C68.057 187.687 68.183 187.618 68.2186 187.499L71.3734 176.879C71.4089 176.759 71.3405 176.633 71.2205 176.598Z" fill="white" fill-opacity="0.36"/>
<path d="M74.5765 177.434L74.2065 177.325C74.0865 177.29 73.9605 177.358 73.9249 177.478L70.7701 188.098C70.7346 188.217 70.803 188.343 70.923 188.378L71.293 188.488C71.4129 188.523 71.539 188.455 71.5745 188.335L74.7293 177.715C74.7649 177.596 74.6964 177.47 74.5765 177.434Z" fill="white" fill-opacity="0.36"/>
<path d="M120.689 176.68L120.657 176.69C120.432 176.763 120.309 177.003 120.382 177.228L123.672 187.386C123.744 187.61 123.986 187.733 124.21 187.66L124.242 187.65C124.467 187.578 124.591 187.337 124.518 187.113L121.228 176.955C121.155 176.731 120.914 176.608 120.689 176.68Z" fill="white" fill-opacity="0.36"/>
<path d="M117.936 177.693L117.353 177.85C117.232 177.883 117.161 178.007 117.193 178.127L119.89 188.094C119.923 188.215 120.047 188.286 120.168 188.254L120.751 188.097C120.872 188.064 120.943 187.94 120.911 187.82L118.214 177.853C118.181 177.732 118.057 177.661 117.936 177.693Z" fill="white" fill-opacity="0.36"/>
<path d="M77.2849 178.691L76.8932 178.598C76.7715 178.569 76.6493 178.644 76.6204 178.765L74.2211 188.808C74.1921 188.929 74.2673 189.051 74.389 189.08L74.7807 189.173C74.9024 189.202 75.0246 189.127 75.0536 189.005L77.4528 178.963C77.4818 178.842 77.4066 178.72 77.2849 178.691Z" fill="white" fill-opacity="0.36"/>
<path d="M80.6409 179.528L80.2492 179.435C80.1275 179.406 80.0053 179.481 79.9763 179.602L77.5771 189.644C77.5481 189.766 77.6232 189.888 77.7449 189.917L78.1367 190.01C78.2584 190.038 78.3805 189.964 78.4095 189.842L80.8088 179.8C80.8378 179.678 80.7626 179.557 80.6409 179.528Z" fill="white" fill-opacity="0.36"/>
<path d="M114.94 178.954L114.875 178.968C114.575 179.03 114.383 179.322 114.446 179.621L116.384 188.875C116.447 189.173 116.74 189.364 117.04 189.302L117.105 189.288C117.405 189.226 117.597 188.934 117.534 188.635L115.595 179.381C115.533 179.083 115.24 178.892 114.94 178.954Z" fill="white" fill-opacity="0.36"/>
<path d="M111.805 179.149L111.508 179.204C111.298 179.242 111.159 179.443 111.198 179.652L112.93 189.065C112.969 189.274 113.17 189.412 113.379 189.374L113.676 189.32C113.886 189.281 114.025 189.081 113.986 188.872L112.254 179.458C112.215 179.249 112.014 179.111 111.805 179.149Z" fill="white" fill-opacity="0.36"/>
<path d="M83.8621 179.434L83.3679 179.338C83.2497 179.315 83.1352 179.392 83.1122 179.51L81.0631 190.022C81.0401 190.14 81.1174 190.254 81.2356 190.277L81.7298 190.373C81.848 190.396 81.9625 190.319 81.9855 190.201L84.0346 179.689C84.0576 179.571 83.9803 179.457 83.8621 179.434Z" fill="white" fill-opacity="0.36"/>
<path d="M105.38 179.866L105.031 179.91C104.819 179.936 104.669 180.128 104.695 180.339L106 190.783C106.026 190.993 106.219 191.143 106.431 191.117L106.78 191.073C106.992 191.047 107.142 190.855 107.116 190.644L105.811 180.2C105.785 179.99 105.592 179.84 105.38 179.866Z" fill="white" fill-opacity="0.36"/>
<path d="M102.024 179.866L101.675 179.91C101.463 179.936 101.313 180.128 101.339 180.339L102.644 190.783C102.67 190.993 102.863 191.143 103.075 191.117L103.424 191.073C103.636 191.047 103.786 190.855 103.76 190.644L102.455 180.2C102.429 179.99 102.236 179.84 102.024 179.866Z" fill="white" fill-opacity="0.36"/>
<path d="M108.569 179.748L108.272 179.799C108.075 179.833 107.943 180.018 107.977 180.214L109.738 190.489C109.772 190.685 109.958 190.817 110.154 190.783L110.452 190.732C110.649 190.699 110.781 190.513 110.747 190.317L108.986 180.042C108.952 179.847 108.766 179.715 108.569 179.748Z" fill="white" fill-opacity="0.36"/>
<path d="M86.7794 180.263L86.2628 180.203C86.1431 180.189 86.0347 180.274 86.0207 180.393L84.805 190.713C84.7909 190.832 84.8765 190.94 84.9962 190.954L85.5128 191.015C85.6324 191.029 85.7408 190.943 85.7549 190.824L86.9706 180.504C86.9846 180.385 86.899 180.277 86.7794 180.263Z" fill="white" fill-opacity="0.36"/>
<path d="M90.1351 180.263L89.6185 180.203C89.4988 180.189 89.3905 180.274 89.3764 180.393L88.1607 190.713C88.1466 190.832 88.2322 190.94 88.3519 190.954L88.8685 191.015C88.9881 191.029 89.0965 190.943 89.1106 190.824L90.3263 180.504C90.3404 180.385 90.2548 180.277 90.1351 180.263Z" fill="white" fill-opacity="0.36"/>
<path d="M93.4911 180.263L92.9745 180.203C92.8548 180.189 92.7464 180.274 92.7324 180.393L91.5167 190.713C91.5026 190.832 91.5882 190.94 91.7079 190.954L92.2245 191.015C92.3441 191.029 92.4525 190.943 92.4665 190.824L93.6823 180.504C93.6963 180.385 93.6107 180.277 93.4911 180.263Z" fill="white" fill-opacity="0.36"/>
<path d="M99.4772 180.192L98.9571 180.201C98.8367 180.203 98.7407 180.302 98.7428 180.422L98.9232 190.811C98.9253 190.931 99.0246 191.027 99.145 191.025L99.6651 191.016C99.7856 191.014 99.8815 190.915 99.8795 190.795L99.6991 180.406C99.697 180.286 99.5976 180.19 99.4772 180.192Z" fill="white" fill-opacity="0.36"/>
<path d="M96.207 180.439H95.6197C95.3602 180.439 95.1499 180.648 95.1499 180.907V191.532C95.1499 191.79 95.3602 192 95.6197 192H96.207C96.4665 192 96.6768 191.79 96.6768 191.532V180.907C96.6768 180.648 96.4665 180.439 96.207 180.439Z" fill="white"/>
<path d="M174.443 150.935L174.637 150.642C174.765 150.449 174.716 150.217 174.528 150.123L164.997 145.349C164.809 145.255 164.553 145.335 164.425 145.528L164.231 145.82C164.103 146.013 164.152 146.246 164.34 146.34L173.872 151.113C174.06 151.208 174.316 151.128 174.443 150.935Z" fill="white" fill-opacity="0.36"/>
<path d="M176.577 147.318L176.587 147.301C176.74 147.056 176.67 146.767 176.429 146.656L167.678 142.621C167.438 142.51 167.118 142.619 166.965 142.865L166.954 142.881C166.801 143.127 166.872 143.416 167.112 143.527L175.863 147.562C176.104 147.673 176.423 147.563 176.577 147.318Z" fill="white" fill-opacity="0.36"/>
<path d="M168.664 140.358L177.701 143.981C177.953 144.083 178.275 143.958 178.419 143.702L178.438 143.669C178.583 143.414 178.496 143.125 178.243 143.024L169.207 139.401C168.954 139.299 168.633 139.424 168.488 139.68L168.469 139.713C168.324 139.968 168.412 140.257 168.664 140.358Z" fill="white" fill-opacity="0.36"/>
<path d="M171.302 136.722L181.785 139.868C182.03 139.942 182.303 139.841 182.395 139.643L182.434 139.559C182.526 139.361 182.403 139.142 182.158 139.068L171.675 135.922C171.431 135.848 171.158 135.949 171.066 136.147L171.026 136.231C170.934 136.429 171.057 136.648 171.302 136.722Z" fill="white" fill-opacity="0.36"/>
<path d="M173.02 133.933L183.504 137.079C183.748 137.153 184.021 137.052 184.113 136.854L184.153 136.77C184.245 136.572 184.121 136.353 183.877 136.279L173.394 133.133C173.149 133.059 172.876 133.16 172.784 133.358L172.745 133.442C172.653 133.64 172.776 133.86 173.02 133.933Z" fill="white" fill-opacity="0.36"/>
<path d="M96.6952 11.0827L96.6584 0.578883C96.6573 0.259174 96.3979 0.000899885 96.0791 0.00200995L95.5772 0.00375773C95.2584 0.00486779 95.0009 0.264942 95.002 0.58465L95.0388 11.0884C95.0399 11.4081 95.2992 11.6664 95.618 11.6653L96.12 11.6636C96.4388 11.6625 96.6963 11.4024 96.6952 11.0827Z" fill="white"/>
</svg>
