<svg width="24" height="24" viewBox="0 0 24 24" fill="none" xmlns="http://www.w3.org/2000/svg">
<path d="M15.0066 3.25608C16.8483 2.85737 19.1331 2.8773 22.2423 3.65268C22.7781 3.78629 23.1038 4.32791 22.9699 4.86241C22.836 5.39691 22.2931 5.7219 21.7573 5.58829C18.8666 4.86742 16.9015 4.88747 15.4308 5.20587C13.9555 5.52524 12.895 6.15867 11.7715 6.84363L11.6874 6.89494C10.6044 7.55565 9.40515 8.28729 7.82073 8.55069C6.17734 8.82388 4.23602 8.58235 1.62883 7.54187C1.11607 7.33724 0.866673 6.75667 1.0718 6.24513C1.27692 5.73359 1.85889 5.48479 2.37165 5.68943C4.76435 6.6443 6.32295 6.77699 7.492 6.58265C8.67888 6.38535 9.58373 5.83916 10.7286 5.14119C11.855 4.45445 13.1694 3.6538 15.0066 3.25608Z" fill="white" fill-opacity="0.6"/>
<path d="M22.2423 7.64303C19.1331 6.86766 16.8483 6.84773 15.0066 7.24643C13.1694 7.64416 11.855 8.4448 10.7286 9.13154C9.58373 9.82951 8.67888 10.3757 7.492 10.573C6.32295 10.7673 4.76435 10.6346 2.37165 9.67978C1.85889 9.47515 1.27692 9.72394 1.0718 10.2355C0.866673 10.747 1.11607 11.3276 1.62883 11.5322C4.23602 12.5727 6.17734 12.8142 7.82073 12.541C9.40515 12.2776 10.6044 11.546 11.6874 10.8853L11.7715 10.834C12.895 10.149 13.9555 9.51559 15.4308 9.19622C16.9015 8.87782 18.8666 8.85778 21.7573 9.57864C22.2931 9.71225 22.836 9.38727 22.9699 8.85276C23.1038 8.31826 22.7781 7.77664 22.2423 7.64303Z" fill="white" fill-opacity="0.6"/>
<path fill-rule="evenodd" clip-rule="evenodd" d="M18.9999 10.0266C18.6527 10.0266 18.3634 10.2059 18.1615 10.4772C18.0906 10.573 17.9267 10.7972 17.709 11.111C17.4194 11.5283 17.0318 12.1082 16.6425 12.7555C16.2551 13.3996 15.8554 14.128 15.5496 14.8397C15.2568 15.5213 14.999 16.2614 15 17.0117C15.0007 17.2223 15.0259 17.4339 15.0605 17.6412C15.1183 17.9872 15.2357 18.4636 15.4805 18.9521C15.7273 19.4446 16.1132 19.9674 16.7108 20.3648C17.3147 20.7664 18.0749 21 18.9999 21C19.9249 21 20.6851 20.7664 21.2889 20.3648C21.8865 19.9674 22.2725 19.4446 22.5193 18.9522C22.7641 18.4636 22.8816 17.9872 22.9394 17.6413C22.9741 17.4337 22.9996 17.2215 22.9999 17.0107C23.0002 16.2604 22.7431 15.5214 22.4502 14.8397C22.1445 14.128 21.7448 13.3996 21.3574 12.7555C20.9681 12.1082 20.5804 11.5283 20.2908 11.111C20.0731 10.7972 19.9091 10.573 19.8383 10.4772C19.6364 10.2059 19.347 10.0266 18.9999 10.0266ZM20.612 15.6257C20.3553 15.0281 20.005 14.3848 19.6424 13.782C19.4219 13.4154 19.2008 13.0702 18.9999 12.7674C18.799 13.0702 18.5779 13.4154 18.3574 13.782C17.9949 14.3848 17.6446 15.0281 17.3879 15.6257L17.3733 15.6595C17.1966 16.0704 16.9878 16.5562 17.0002 17.0101C17.0122 17.3691 17.1089 17.7397 17.2694 18.0599C17.3975 18.3157 17.5741 18.5411 17.8202 18.7048C18.0601 18.8643 18.4249 19.0048 18.9999 19.0048C19.5749 19.0048 19.9397 18.8643 20.1796 18.7048C20.4257 18.5411 20.6023 18.3156 20.7305 18.0599C20.891 17.7397 20.9877 17.3691 20.9997 17.01C21.0122 16.5563 20.8033 16.0705 20.6266 15.6597L20.612 15.6257Z" fill="white" fill-opacity="0.6"/>
<path d="M14.1296 11.5308C14.8899 11.2847 15.4728 12.076 15.1153 12.7892C14.952 13.1151 14.7683 13.3924 14.4031 13.5214C13.426 13.8666 12.6166 14.3527 11.7715 14.8679L11.6874 14.9192C10.6044 15.5799 9.40515 16.3115 7.82073 16.5749C6.17734 16.8481 4.23603 16.6066 1.62883 15.5661C1.11607 15.3615 0.866676 14.7809 1.0718 14.2694C1.27693 13.7578 1.85889 13.509 2.37166 13.7137C4.76435 14.6685 6.32296 14.8012 7.492 14.6069C8.67888 14.4096 9.58373 13.8634 10.7286 13.1654C11.8166 12.5021 12.9363 11.9171 14.1296 11.5308Z" fill="white" fill-opacity="0.6"/>
</svg>
