<svg width="24" height="25" viewBox="0 0 24 25" fill="none" xmlns="http://www.w3.org/2000/svg">
<path fill-rule="evenodd" clip-rule="evenodd" d="M12 8.25C11.0335 8.25 10.25 9.0335 10.25 10C10.25 10.9665 11.0335 11.75 12 11.75C12.9665 11.75 13.75 10.9665 13.75 10C13.75 9.0335 12.9665 8.25 12 8.25ZM8.75 10C8.75 8.20507 10.2051 6.75 12 6.75C13.7949 6.75 15.25 8.20507 15.25 10C15.25 11.7949 13.7949 13.25 12 13.25C10.2051 13.25 8.75 11.7949 8.75 10Z" fill="white" fill-opacity="0.6"/>
<path fill-rule="evenodd" clip-rule="evenodd" d="M19.5736 9.16416C17.8061 1.28438 6.20298 1.27606 4.4263 9.15453C3.92771 11.3772 4.53594 13.4677 5.64581 15.3712C6.7601 17.2823 8.34545 18.9443 9.70294 20.2748C9.70324 20.2751 9.70355 20.2754 9.70385 20.2757L9.98821 20.5525C9.9889 20.5532 9.98959 20.5539 9.99028 20.5545C10.9528 21.4764 11.5456 21.7503 12.0124 21.7449C12.4842 21.7395 13.0841 21.4468 14.0536 20.5027L14.055 20.5014C15.4247 19.1742 17.0789 17.4922 18.2558 15.5403C19.428 13.596 20.0867 11.451 19.5736 9.16416ZM8.9461 21.6314L8.89129 21.5786L8.89035 21.5777C8.81273 21.5022 8.73386 21.4253 8.65394 21.347C7.2824 20.0028 5.57222 18.223 4.34999 16.1267C3.12314 14.0226 2.35382 11.5399 2.96276 8.82581C5.09134 -0.615301 18.9197 -0.604231 21.0372 8.83585C21.6639 11.6291 20.831 14.174 19.5403 16.3147C18.2545 18.4475 16.4747 20.2454 15.0992 21.5782C14.0956 22.5554 13.1259 23.2322 12.0296 23.2448C10.9283 23.2575 9.95462 22.5979 8.95039 21.6356L8.9461 21.6314Z" fill="white" fill-opacity="0.6"/>
</svg>
