<svg width="24" height="24" viewBox="0 0 24 24" fill="none" xmlns="http://www.w3.org/2000/svg">
<g id="search_svgrepo.com" clip-path="url(#clip0_102_4773)">
<g id="Page-1">
<g id="Icon-Set">
<path id="search" fill-rule="evenodd" clip-rule="evenodd" d="M10.095 18.3375C5.37749 18.3375 1.55326 14.58 1.55326 9.9375C1.55326 5.295 5.37749 1.53003 10.095 1.53003C14.8125 1.53003 18.6375 5.295 18.6375 9.9375C18.6375 14.58 14.8125 18.3375 10.095 18.3375ZM23.766 22.6875L17.5717 16.59C19.1932 14.8275 20.19 12.5025 20.19 9.9375C20.19 4.4475 15.6705 0 10.095 0C4.51949 0 0 4.4475 0 9.9375C0 15.42 4.51949 19.8675 10.095 19.8675C12.504 19.8675 14.7135 19.035 16.449 17.6475L22.668 23.7675C22.9717 24.0675 23.463 24.0675 23.766 23.7675C24.0697 23.475 24.0697 22.9875 23.766 22.6875Z" fill="white" fill-opacity="0.6"/>
</g>
</g>
</g>
<defs>
<clipPath id="clip0_102_4773">
<rect width="24" height="24" fill="white"/>
</clipPath>
</defs>
</svg>
