<svg width="24" height="24" viewBox="0 0 24 24" fill="none" xmlns="http://www.w3.org/2000/svg">
<g clip-path="url(#clip0_405_399)">
<path d="M19.5004 22.5H16.5004C16.1029 22.4988 15.7221 22.3404 15.441 22.0594C15.1599 21.7783 15.0015 21.3975 15.0004 21V15.75C14.6029 15.7488 14.2221 15.5904 13.941 15.3094C13.6599 15.0283 13.5015 14.6475 13.5004 14.25V9.75C13.4949 9.45303 13.5494 9.15801 13.6606 8.88257C13.7717 8.60713 13.9372 8.35692 14.1473 8.14689C14.3573 7.93687 14.6075 7.77133 14.8829 7.66019C15.1584 7.54904 15.4534 7.49456 15.7504 7.5H20.2504C20.5473 7.49456 20.8424 7.54904 21.1178 7.66019C21.3932 7.77133 21.6435 7.93687 21.8535 8.14689C22.0635 8.35692 22.229 8.60713 22.3402 8.88257C22.4513 9.15801 22.5058 9.45303 22.5004 9.75V14.25C22.4992 14.6475 22.3408 15.0283 22.0597 15.3094C21.7787 15.5904 21.3978 15.7488 21.0004 15.75V21C20.9992 21.3975 20.8408 21.7783 20.5597 22.0594C20.2787 22.3404 19.8978 22.4988 19.5004 22.5ZM15.7504 9C15.6503 8.99397 15.5501 9.00923 15.4564 9.04478C15.3626 9.08034 15.2775 9.13538 15.2066 9.20626C15.1357 9.27715 15.0807 9.36227 15.0451 9.456C15.0096 9.54973 14.9943 9.64994 15.0004 9.75V14.25H16.5004V21H19.5004V14.25H21.0004V9.75C21.0064 9.64994 20.9911 9.54973 20.9556 9.456C20.92 9.36227 20.865 9.27715 20.7941 9.20626C20.7232 9.13538 20.6381 9.08034 20.5444 9.04478C20.4506 9.00923 20.3504 8.99397 20.2504 9H15.7504Z" fill="white" fill-opacity="0.6"/>
<path d="M18 6.75C17.4067 6.75 16.8266 6.57405 16.3333 6.24441C15.8399 5.91477 15.4554 5.44623 15.2284 4.89805C15.0013 4.34987 14.9419 3.74667 15.0576 3.16473C15.1734 2.58279 15.4591 2.04824 15.8787 1.62868C16.2982 1.20912 16.8328 0.923401 17.4147 0.807646C17.9967 0.69189 18.5999 0.7513 19.1481 0.978363C19.6962 1.20543 20.1648 1.58994 20.4944 2.08329C20.8241 2.57664 21 3.15666 21 3.75C20.9977 4.54493 20.6808 5.30664 20.1187 5.86874C19.5566 6.43085 18.7949 6.74767 18 6.75ZM18 2.25C17.7033 2.25 17.4133 2.33797 17.1666 2.5028C16.92 2.66762 16.7277 2.90189 16.6142 3.17598C16.5007 3.45007 16.4709 3.75167 16.5288 4.04264C16.5867 4.33361 16.7296 4.60088 16.9393 4.81066C17.1491 5.02044 17.4164 5.1633 17.7074 5.22118C17.9983 5.27906 18.2999 5.24935 18.574 5.13582C18.8481 5.02229 19.0824 4.83003 19.2472 4.58336C19.412 4.33668 19.5 4.04667 19.5 3.75C19.4988 3.35254 19.3404 2.97168 19.0594 2.69063C18.7783 2.40958 18.3975 2.25117 18 2.25Z" fill="white" fill-opacity="0.6"/>
<path d="M7.5 15.1379V9H6V15.1379C5.49959 15.3148 5.07784 15.663 4.80928 16.1208C4.54072 16.5786 4.44265 17.1166 4.53241 17.6397C4.62216 18.1628 4.89396 18.6374 5.29976 18.9795C5.70556 19.3216 6.21924 19.5092 6.75 19.5092C7.28077 19.5092 7.79445 19.3216 8.20025 18.9795C8.60605 18.6374 8.87785 18.1628 8.9676 17.6397C9.05735 17.1166 8.95929 16.5786 8.69073 16.1208C8.42217 15.663 8.00041 15.3148 7.5 15.1379Z" fill="white" fill-opacity="0.6"/>
<path d="M6.74996 22.5C5.71658 22.501 4.70592 22.1967 3.84487 21.6254C2.98382 21.054 2.31075 20.241 1.91014 19.2884C1.50954 18.3358 1.39926 17.2861 1.59315 16.2711C1.78704 15.2561 2.27645 14.3209 2.99996 13.5831V5.25C2.99996 4.25544 3.39505 3.30161 4.09831 2.59835C4.80157 1.89509 5.7554 1.5 6.74996 1.5C7.74452 1.5 8.69835 1.89509 9.40161 2.59835C10.1049 3.30161 10.5 4.25544 10.5 5.25V13.5831C11.2235 14.3209 11.7129 15.2561 11.9068 16.2711C12.1007 17.2861 11.9904 18.3358 11.5898 19.2884C11.1892 20.241 10.5161 21.054 9.65505 21.6254C8.79399 22.1967 7.78334 22.501 6.74996 22.5ZM6.74996 3C6.15342 3.00066 5.58151 3.23792 5.15969 3.65973C4.73788 4.08155 4.50061 4.65346 4.49996 5.25V14.2376L4.25096 14.4613C3.68462 14.9675 3.28535 15.6337 3.10599 16.3718C2.92664 17.1099 2.97566 17.8851 3.24657 18.5947C3.51748 19.3043 3.99751 19.915 4.6231 20.3458C5.2487 20.7766 5.99038 21.0073 6.74996 21.0073C7.50954 21.0073 8.25122 20.7766 8.87682 20.3458C9.50241 19.915 9.98244 19.3043 10.2533 18.5947C10.5243 17.8851 10.5733 17.1099 10.3939 16.3718C10.2146 15.6337 9.8153 14.9675 9.24896 14.4613L8.99996 14.2376V5.25C8.9993 4.65346 8.76204 4.08155 8.34023 3.65973C7.91841 3.23792 7.3465 3.00066 6.74996 3Z" fill="white" fill-opacity="0.6"/>
</g>
<defs>
<clipPath id="clip0_405_399">
<rect width="24" height="24" fill="white"/>
</clipPath>
</defs>
</svg>
