<svg width="24" height="24" viewBox="0 0 24 24" fill="none" xmlns="http://www.w3.org/2000/svg">
<path d="M12 1.6875C6.74545 1.6875 2.57902 6.7748 0.857391 9.25964C0.299484 10.0648 0 11.0204 0 12C0 12.9796 0.299484 13.9352 0.857391 14.7404C2.57902 17.2252 6.74545 22.3125 12 22.3125C17.2545 22.3125 21.421 17.2252 23.1426 14.7404C23.7005 13.9352 24 12.9796 24 12C24 11.0204 23.7005 10.0648 23.1426 9.25964C21.421 6.7748 17.2545 1.6875 12 1.6875ZM12 18.5625C8.38144 18.5625 5.4375 15.6186 5.4375 12C5.4375 8.38144 8.38144 5.4375 12 5.4375C15.6186 5.4375 18.5625 8.38144 18.5625 12C18.5625 15.6186 15.6186 18.5625 12 18.5625Z" fill="white" fill-opacity="0.6"/>
<path d="M12 15.75C14.0711 15.75 15.75 14.0711 15.75 12C15.75 9.92893 14.0711 8.25 12 8.25C9.92893 8.25 8.25 9.92893 8.25 12C8.25 14.0711 9.92893 15.75 12 15.75Z" fill="white" fill-opacity="0.6"/>
</svg>
